<svg width="227" height="324" viewBox="0 0 227 324" fill="none" xmlns="http://www.w3.org/2000/svg">
<g clip-path="url(#clip0_0_804)">
<path d="M74.6727 98.728C72.682 99.4863 70.6491 100.129 68.5843 100.653C65.8569 101.318 64.317 101.626 61.6845 100.604C61.5921 100.569 61.5038 100.533 61.4206 100.498C56.4309 98.3768 52.1655 94.8507 49.1437 90.3492C46.1219 85.8476 44.474 80.5648 44.4006 75.1437C44.3874 74.9577 44.3874 74.7622 44.3874 74.5714C44.3849 73.6527 44.4288 72.7343 44.519 71.82C44.6344 70.5745 44.8336 69.3382 45.1154 68.1196L45.0891 68.1148C42.9578 65.9356 42.1377 62.9504 42.4096 59.951C42.5959 57.9175 43.2413 55.9529 44.2972 54.205C45.3531 52.4572 46.792 50.9718 48.5054 49.8607C51.1906 48.1726 54.2183 47.104 57.3684 46.7326C58.2142 46.635 59.0649 46.5857 59.9164 46.5847H67.9154C69.5675 46.198 71.2458 45.9334 72.9368 45.7931H72.9499C89.0489 44.4579 101.745 55.13 100.561 68.1148C100.552 68.1291 100.539 68.1434 100.53 68.1577C100.188 68.7156 99.8854 69.2449 99.6179 69.7504C99.3591 70.2225 99.1399 70.6755 98.9513 71.1047C97.4822 74.4236 104.464 125.917 101.96 126.699C100.534 127.142 94.7895 88.8247 95.8201 96.1111C97.1182 105.252 82.0894 95.9865 74.6727 98.728Z" fill="#2F2E41"/>
<path d="M98.9281 191.813L121.245 239.352L35.3984 230.658L53.3184 185.021L98.9281 191.813Z" fill="#FFB6B6"/>
<path d="M143.72 287.127C128.792 292.095 113.061 294.202 97.351 293.337L90.5197 282.259C90.5197 282.259 90.2336 286.385 89.8069 292.692C82.3288 291.826 74.9481 290.261 67.7616 288.019C54.1329 283.757 41.3575 277.154 28.4076 271.065C25.7847 255.431 24.8004 231.322 39.3018 217.287L117.355 231.588C117.355 231.588 129.878 240.954 126.528 244.309C123.178 247.659 122.659 247.141 124.86 249.342C127.062 251.542 131.818 254.485 131.866 256.41C131.886 257.161 137.224 270.789 143.72 287.127Z" fill="#2F2E41"/>
<path d="M85.2948 99.9492L66.4373 101.265L54.249 113.042L49.9804 113.803C46.1435 114.487 42.691 116.556 40.2776 119.616C37.8642 122.676 36.6577 126.515 36.8869 130.406C37.765 145.28 39.7309 167.506 43.8398 174.717C50.2111 185.898 55.4737 182.39 50.2111 185.898C44.9486 189.406 41.4154 186.65 43.8398 192.194C46.2642 197.738 40.5631 204.849 40.5631 204.849L38.2936 207.119L40.7007 208.105L117.4 218.084C117.4 218.084 110.768 188.268 114.915 180.944C119.063 173.62 129.119 151.479 120.144 142.816L111.369 111.938L96.2738 107.486L85.2948 99.9492Z" fill="#6C63FF"/>
<path d="M199.446 222.323C198.184 222.283 196.946 221.97 195.817 221.404C194.688 220.838 193.696 220.034 192.908 219.048C192.121 218.061 191.557 216.915 191.256 215.688C190.955 214.462 190.924 213.185 191.165 211.946L155.188 187.582L159.48 175.975L202 205.224C204.056 205.785 205.835 207.081 207 208.866C208.164 210.65 208.633 212.8 208.319 214.908C208.004 217.016 206.927 218.935 205.292 220.301C203.656 221.668 201.577 222.388 199.446 222.323Z" fill="#FFB6B6"/>
<path d="M97.8295 110.479L92.6016 112.549L120.49 167.013L178.224 206.364L186.546 192.299L142.598 154.342L125.004 120.601C122.528 115.852 118.38 112.19 113.361 110.321C108.342 108.451 102.809 108.508 97.8295 110.479Z" fill="#6C63FF"/>
<path d="M74.8887 95.1594C85.3465 95.1594 93.8242 86.6823 93.8242 76.2252C93.8242 65.7681 85.3465 57.291 74.8887 57.291C64.4309 57.291 55.9531 65.7681 55.9531 76.2252C55.9531 86.6823 64.4309 95.1594 74.8887 95.1594Z" fill="#FFB6B6"/>
<path d="M91.3518 68.2182C91.036 68.3848 90.7247 68.5383 90.4089 68.6918C90.08 68.8496 89.7511 69.0075 89.4178 69.1566C83.0808 72.0288 77.9191 72.349 74.7879 68.2182C74.7022 66.045 74.213 63.9066 73.3451 61.9124C73.4985 64.141 72.9111 66.3579 71.6742 68.2182H65.368C58.8731 72.5288 55.5402 76.4886 60.0484 90.6394C60.3422 91.5691 62.3551 124.598 62.9296 127.137C53.0975 123.366 44.616 83.325 44.4011 72.7743C44.3879 72.6033 44.3879 72.4235 44.3879 72.2481C44.3854 71.4029 44.4293 70.5582 44.5195 69.7179C44.6352 68.5706 44.8346 67.4333 45.1159 66.315L45.0896 66.3106C44.0892 65.3543 43.3261 64.1776 42.8609 62.8742C42.3957 61.5708 42.2413 60.1768 42.4101 58.8033C44.0595 56.6438 46.1006 54.814 48.4269 53.4096C50.5423 52.3853 52.7472 51.5574 55.0139 50.9363C55.0709 50.9232 55.1191 50.91 55.1761 50.8969C55.8691 50.7083 56.5795 50.5373 57.2899 50.3882C58.754 50.0812 60.2343 49.8572 61.7236 49.7173C61.8333 49.7129 61.9385 49.7041 62.035 49.7041C62.6307 49.7045 63.2154 49.865 63.7278 50.1689C63.7322 50.1689 63.7322 50.1733 63.7409 50.1733C64.2333 50.4675 64.6416 50.8834 64.9265 51.3811C65.2115 51.8788 65.3635 52.4414 65.3679 53.0149H72.3935C72.6522 53.0149 72.9109 53.0237 73.1697 53.0368C82.9536 53.4271 90.8168 57.6105 91.3211 67.2271C91.343 67.5604 91.3518 67.8849 91.3518 68.2182Z" fill="#2F2E41"/>
<path d="M49.8186 68.9797C56.7083 68.9797 62.2935 63.3949 62.2935 56.5057C62.2935 49.6165 56.7083 44.0317 49.8186 44.0317C42.9289 44.0317 37.3438 49.6165 37.3438 56.5057C37.3438 63.3949 42.9289 68.9797 49.8186 68.9797Z" fill="#2F2E41"/>
<path d="M66.9385 50.7361C65.5213 57.478 58.529 61.5102 51.8397 59.8607C48.6274 59.0687 45.8613 57.033 44.15 54.2017C42.4387 51.3703 41.9223 47.9751 42.7144 44.7631C44.364 38.0742 52.4823 40.0026 57.8132 35.6384C65.3546 29.4647 68.8498 41.6442 66.9385 50.7361Z" fill="#2F2E41"/>
<path d="M39.2212 238.403C49.8533 195.048 70.9198 157.785 105.809 128.589C107.159 126.368 109.335 124.773 111.86 124.154C114.385 123.536 117.052 123.943 119.276 125.289L202.216 175.573C204.437 176.923 206.032 179.099 206.651 181.624C207.269 184.148 206.861 186.815 205.516 189.039C192.2 233.526 172.254 272.128 138.929 298.853C137.579 301.074 135.402 302.669 132.878 303.288C130.353 303.907 127.686 303.499 125.462 302.154L42.5219 251.869C40.3006 250.519 38.7057 248.343 38.0869 245.818C37.4681 243.294 37.876 240.627 39.2212 238.403Z" fill="#F2F2F2"/>
<path opacity="0.2" d="M53.9629 253.014C51.7417 251.664 50.1467 249.488 49.528 246.963C48.9092 244.438 49.3172 241.772 50.6624 239.547C61.2944 196.193 82.361 158.929 117.25 129.734C118.144 128.28 119.406 127.088 120.908 126.278L119.276 125.289C117.052 123.943 114.385 123.536 111.86 124.154C109.335 124.773 107.159 126.368 105.809 128.589C70.9198 157.784 49.8533 195.048 39.2213 238.403C37.8761 240.627 37.4681 243.294 38.0869 245.818C38.7056 248.343 40.3006 250.519 42.5218 251.869L125.461 302.154C126.938 303.042 128.622 303.524 130.345 303.551C132.068 303.578 133.767 303.15 135.27 302.309L53.9629 253.014Z" fill="black"/>
<path d="M151.236 228.792L95.5626 195.249C94.6781 194.714 94.0419 193.851 93.7938 192.848C93.5456 191.845 93.7058 190.784 94.2392 189.899C94.7725 189.014 95.6354 188.376 96.6383 188.127C97.6412 187.878 98.7021 188.036 99.588 188.569L155.261 222.111C156.143 222.647 156.777 223.51 157.024 224.512C157.271 225.514 157.111 226.573 156.578 227.457C156.045 228.341 155.184 228.978 154.182 229.228C153.181 229.478 152.121 229.321 151.236 228.792Z" fill="white"/>
<path d="M118.849 184.311L106.601 176.932C105.713 176.401 105.073 175.539 104.821 174.536C104.569 173.533 104.725 172.471 105.256 171.583C105.787 170.696 106.649 170.055 107.652 169.803C108.655 169.551 109.718 169.708 110.605 170.239L110.626 170.251L122.874 177.631C123.757 178.166 124.391 179.03 124.638 180.032C124.885 181.034 124.725 182.093 124.192 182.978C123.659 183.862 122.798 184.498 121.796 184.748C120.794 184.998 119.735 184.841 118.849 184.311Z" fill="white"/>
<path d="M142.381 243.476L86.7083 209.933C85.8228 209.4 85.1852 208.537 84.9357 207.534C84.6861 206.531 84.845 205.47 85.3774 204.584C85.9098 203.698 86.7722 203.06 87.7751 202.809C88.7779 202.559 89.8392 202.716 90.7257 203.248L90.7336 203.253L146.407 236.795C147.289 237.331 147.923 238.194 148.17 239.196C148.417 240.199 148.256 241.258 147.724 242.142C147.191 243.026 146.329 243.662 145.328 243.912C144.327 244.163 143.267 244.006 142.381 243.476Z" fill="white"/>
<path d="M158.3 165.546C167.281 165.546 174.561 158.266 174.561 149.286C174.561 140.306 167.281 133.026 158.3 133.026C149.319 133.026 142.039 140.306 142.039 149.286C142.039 158.266 149.319 165.546 158.3 165.546Z" fill="#3F3D56"/>
<path d="M130.271 323.515C149.466 323.515 165.026 307.956 165.026 288.762C165.026 269.569 149.466 254.009 130.271 254.009C111.076 254.009 95.5156 269.569 95.5156 288.762C95.5156 307.956 111.076 323.515 130.271 323.515Z" fill="white"/>
<path d="M130.271 324C123.302 324 116.488 321.934 110.693 318.062C104.898 314.19 100.381 308.686 97.7138 302.247C95.0465 295.809 94.3487 288.724 95.7084 281.888C97.0681 275.053 100.424 268.774 105.353 263.846C110.281 258.918 116.56 255.562 123.396 254.202C130.232 252.842 137.318 253.54 143.757 256.207C150.196 258.874 155.7 263.391 159.572 269.185C163.445 274.98 165.512 281.793 165.512 288.762C165.501 298.105 161.785 307.061 155.178 313.668C148.572 320.274 139.614 323.99 130.271 324ZM130.271 254.494C123.493 254.494 116.868 256.504 111.232 260.27C105.596 264.035 101.203 269.387 98.6096 275.649C96.0157 281.91 95.3371 288.801 96.6594 295.448C97.9818 302.095 101.246 308.201 106.039 312.994C110.831 317.786 116.938 321.05 123.586 322.372C130.234 323.694 137.124 323.016 143.386 320.422C149.648 317.828 155.001 313.436 158.766 307.801C162.532 302.165 164.542 295.54 164.542 288.762C164.532 279.677 160.918 270.967 154.493 264.543C148.068 258.118 139.357 254.505 130.271 254.494Z" fill="#3F3D56"/>
<path d="M125.529 306.849C124.929 306.849 124.337 306.71 123.8 306.441C123.263 306.173 122.797 305.783 122.437 305.303L112.955 292.661C112.65 292.255 112.428 291.793 112.301 291.301C112.175 290.809 112.147 290.297 112.218 289.794C112.29 289.291 112.46 288.807 112.719 288.37C112.977 287.933 113.32 287.551 113.726 287.246C114.133 286.942 114.595 286.72 115.087 286.594C115.579 286.468 116.091 286.44 116.594 286.513C117.097 286.585 117.581 286.755 118.018 287.014C118.455 287.273 118.836 287.616 119.14 288.022L125.344 296.292L141.276 272.396C141.558 271.973 141.92 271.611 142.342 271.328C142.764 271.046 143.237 270.849 143.735 270.749C144.233 270.65 144.745 270.649 145.243 270.748C145.741 270.846 146.215 271.042 146.638 271.324C147.06 271.605 147.423 271.967 147.705 272.389C147.988 272.811 148.184 273.284 148.284 273.782C148.384 274.28 148.384 274.792 148.286 275.29C148.187 275.788 147.991 276.262 147.71 276.685L128.746 305.128C128.403 305.642 127.942 306.067 127.401 306.366C126.86 306.666 126.255 306.831 125.637 306.848C125.601 306.849 125.565 306.849 125.529 306.849Z" fill="#6C63FF"/>
<path d="M44.3944 238.862C43.1551 238.354 42.041 237.584 41.129 236.603C40.2169 235.622 39.5288 234.455 39.1122 233.182C38.6957 231.91 38.5605 230.562 38.7162 229.232C38.8718 227.902 39.3146 226.621 40.0138 225.479L13.2969 187.926L21.8679 177.983L53.2738 222.817C55.109 224.137 56.3962 226.084 56.8915 228.29C57.3868 230.495 57.0559 232.806 55.9614 234.783C54.8669 236.761 53.0849 238.269 50.953 239.02C48.8211 239.772 46.4875 239.716 44.3944 238.862Z" fill="#FFB6B6"/>
<path d="M45.0097 119.858C43.6581 119.063 42.0672 118.775 40.5227 119.047C38.9782 119.319 37.5812 120.132 36.5825 121.341L0.484375 171.823L33.9379 219.333L47.0284 205.274L26.6654 173.277L53.728 147.513C55.9519 142.641 56.2916 137.118 54.6814 132.011C53.0713 126.903 49.6255 122.574 45.0097 119.858Z" fill="#6C63FF"/>
</g>
<defs>
<clipPath id="clip0_0_804">
<rect width="227" height="324" fill="white"/>
</clipPath>
</defs>
</svg>
