<svg width="348" height="248" viewBox="0 0 348 248" fill="none" xmlns="http://www.w3.org/2000/svg">
<path opacity="0.1" d="M115.923 247.334C132.854 247.334 146.579 245.119 146.579 242.386C146.579 239.654 132.854 237.439 115.923 237.439C98.9919 237.439 85.2667 239.654 85.2667 242.386C85.2667 245.119 98.9919 247.334 115.923 247.334Z" fill="#6C63FF"/>
<path opacity="0.1" d="M282.566 247.473C303.693 247.473 320.82 245.258 320.82 242.525C320.82 239.793 303.693 237.578 282.566 237.578C261.439 237.578 244.312 239.793 244.312 242.525C244.312 245.258 261.439 247.473 282.566 247.473Z" fill="#6C63FF"/>
<path opacity="0.1" d="M4.69603 106.927H36.6263V150.662H7.03362C6.95497 151.111 6.87946 151.563 6.79766 152.015H36.6263V187.286C36.5728 187.27 36.5256 187.251 36.4753 187.232C35.6321 186.897 34.7953 186.543 33.9584 186.163L33.4235 185.92C32.5846 185.522 31.7456 185.1 30.9066 184.655C30.614 184.5 30.3214 184.339 30.032 184.175C25.3744 181.553 21.1432 178.231 17.4851 174.323C17.3782 174.219 17.2775 174.108 17.1705 174.007C16.6608 173.451 16.1606 172.888 15.6761 172.312L15.1413 171.68C14.5687 170.975 14.0149 170.251 13.4769 169.518C13.3983 169.41 13.3228 169.303 13.241 169.201C11.053 166.153 9.23624 162.852 7.8296 159.369C7.78555 159.264 7.7478 159.151 7.7069 159.053C7.27483 157.936 6.89205 156.808 6.55855 155.67C6.41383 155.192 6.2754 154.721 6.15585 154.225C6.1118 154.079 6.07405 153.937 6.03944 153.795C4.25243 146.786 4.04163 139.504 4.04163 132.274C4.04163 131.43 4.04163 130.582 4.04163 129.745C4.04163 126.82 4.07624 123.877 4.12658 120.936C4.12658 120.174 4.15804 119.416 4.17377 118.651C4.21782 116.709 4.28074 114.768 4.36254 112.827C4.38142 112.286 4.40659 111.749 4.4349 111.211C4.4349 110.901 4.45063 110.592 4.4821 110.282C4.5576 109.156 4.62053 108.04 4.69603 106.927Z" fill="white"/>
<path opacity="0.1" d="M36.624 58.2325H19.1094C21.9565 53.7544 25.0673 49.4511 28.4251 45.3458C31.027 42.1337 33.7736 39.0037 36.624 35.9875V58.2325Z" fill="white"/>
<path opacity="0.1" d="M36.6227 59.5857V105.574H4.79306C4.79306 105.442 4.81509 105.306 4.82453 105.173C4.85284 104.809 4.88116 104.446 4.91262 104.085C4.94723 103.662 4.98498 103.235 5.02588 102.821C5.06678 102.406 5.11083 101.901 5.15802 101.442C5.20521 100.984 5.24926 100.519 5.30274 100.061C5.35623 99.6021 5.40342 99.1436 5.46005 98.6884C5.51668 98.2331 5.56702 97.7715 5.6268 97.3162C5.67399 96.9368 5.72432 96.5606 5.77466 96.1812C5.84702 95.6469 5.92253 95.1094 6.00433 94.5783C6.00433 94.4992 6.02636 94.417 6.03894 94.3412C6.61317 90.4529 7.3956 86.5986 8.38282 82.795C9.4162 78.805 10.7358 74.8955 12.3312 71.0971C14.0269 67.1235 16.0123 63.2812 18.2712 59.6015L36.6227 59.5857Z" fill="white"/>
<path opacity="0.1" d="M44.2432 106.924V150.662H112.442V106.924H44.2432ZM44.2432 152.012V189.572C44.6333 189.654 45.0203 189.733 45.4041 189.799C45.9264 189.901 46.4455 189.992 46.9772 190.071C47.0779 190.087 47.1817 190.103 47.2918 190.112C47.4995 190.147 47.7134 190.176 47.9211 190.204C48.4465 190.277 48.9687 190.337 49.4941 190.384C49.7427 190.41 49.9944 190.432 50.2461 190.451L50.8533 190.498C51.1836 190.523 51.5108 190.542 51.8349 190.552C52.0362 190.552 52.2376 190.571 52.4452 190.577C52.6025 190.577 52.7598 190.577 52.9234 190.577C53.087 190.577 53.3198 190.577 53.5181 190.577C53.7886 190.577 54.0592 190.577 54.3266 190.577H54.6884C54.959 190.577 55.2296 190.577 55.497 190.552H55.5159C55.7015 190.552 55.8903 190.552 56.079 190.527C56.1314 190.53 56.1839 190.53 56.2363 190.527C56.3936 190.527 56.5509 190.527 56.702 190.504H56.8121L57.866 190.422C58.2121 190.391 58.5613 190.35 58.9137 190.312L59.631 190.226C62.5493 189.815 65.4352 189.198 68.2672 188.38C74.6287 186.597 80.8518 184.102 87.2102 182.275C95.4311 179.919 104.514 178.762 112.458 181.642V152.012H44.2432ZM112.442 58.2324V0.00517044C104.976 -0.0761219 97.5293 0.801477 90.284 2.61666C73.0148 6.97651 57.52 16.4329 44.2432 28.5102V58.2293H47.6662V59.5793H44.2432V105.574H112.442V59.5824H61.7201V58.2324H112.442ZM200.041 38.5641C195.768 38.4123 191.521 37.0528 187.679 34.9535C180.333 30.9383 174.466 24.7384 167.909 19.5059C154.286 8.60789 137.391 2.03176 120.059 0.400371V58.2324H217.417L217.659 57.9763L200.041 38.5641ZM208.91 36.9833L218.313 47.3534V34.2643C215.164 34.6564 212.405 35.589 208.922 36.9706L208.91 36.9833ZM218.313 198.898V152.012H198.276C198.222 151.813 198.169 151.61 198.106 151.408C198.165 151.61 198.216 151.813 198.272 152.012H120.072V185.92C120.814 186.473 121.547 187.055 122.274 187.646C123.057 188.279 123.831 188.946 124.608 189.6L125.392 190.252C125.766 190.568 126.144 190.884 126.524 191.181C127.28 191.797 128.042 192.404 128.812 193.002C129.192 193.318 129.583 193.603 129.97 193.9C136.113 198.62 142.594 202.88 149.359 206.644C150.876 207.488 152.406 208.311 153.949 209.114C154.978 209.642 156.013 210.166 157.052 210.675C158.612 211.441 160.185 212.178 161.771 212.889C176.39 219.483 191.848 224.008 207.705 226.335C211.226 226.858 214.761 227.269 218.31 227.568V198.895H218.625L218.313 198.898ZM120.072 59.5824V105.574H218.326V59.5824H120.072ZM120.072 106.924V150.662H218.326V106.924H120.072ZM225.952 34.2074V48.8077L237.955 35.5732C233.978 34.9282 229.977 34.4677 225.952 34.1916V34.2074ZM225.952 106.94V150.662H321.517V106.924L225.952 106.94ZM321.167 202.37L321.504 152.012H225.952V228.071C232.108 228.33 238.273 228.257 244.42 227.849H244.527C247.464 227.664 250.386 227.394 253.295 227.04H253.362C268.882 225.225 284.057 221.156 298.414 214.959M339.944 114.126C339.585 113.276 339.211 112.432 338.83 111.597C338.119 110.016 337.367 108.48 336.593 106.943H329.137V150.662H347.988C347.979 138.281 344.861 125.635 339.953 114.111L339.944 114.126ZM329.137 152.028V195.342C334.447 190.226 338.934 184.374 342.165 177.684C346.05 169.628 347.828 160.906 347.973 152.021L329.137 152.028ZM329.137 94.1957V105.577H335.895C333.85 101.659 331.597 97.8546 329.146 94.1799L329.137 94.1957ZM264.326 42.788C263.829 42.5983 263.332 42.4054 262.831 42.2189C257.556 40.261 252.164 38.6328 246.689 37.3437L228.321 57.6001L227.969 57.9763L228.205 58.2356H293.576C284.471 51.9378 274.656 46.7471 264.335 42.7722L264.326 42.788ZM295.492 59.5982H227.293L225.952 60.8313V105.574H237.7H237.719H321.529V83.9015C313.948 74.6872 305.197 66.5113 295.501 59.5824L295.492 59.5982Z" fill="white"/>
<path opacity="0.1" d="M36.6227 82.7822V105.574H4.79306C4.79306 105.441 4.81509 105.305 4.82453 105.173C4.85284 104.809 4.88116 104.446 4.91262 104.085C4.94723 103.661 4.98498 103.235 5.02588 102.82C5.06678 102.406 5.11083 101.9 5.15802 101.442C5.20521 100.984 5.24926 100.519 5.30274 100.06C5.35623 99.6019 5.40342 99.1435 5.46005 98.6882C5.51668 98.2329 5.56702 97.7714 5.6268 97.3161C5.67399 96.9367 5.72432 96.5605 5.77466 96.1811C5.84702 95.6468 5.92253 95.1093 6.00433 94.5781C6.00433 94.4991 6.02636 94.4169 6.03894 94.341C6.61317 90.4528 7.3956 86.5984 8.38282 82.7948L36.6227 82.7822Z" fill="white"/>
<path opacity="0.1" d="M4.69603 106.927H36.6263V150.662H7.03362C6.95497 151.111 6.87946 151.563 6.79766 152.015H36.6263V187.286C36.5728 187.27 36.5256 187.251 36.4753 187.232C35.6321 186.897 34.7953 186.543 33.9584 186.163L33.4235 185.92C32.5846 185.522 31.7456 185.1 30.9066 184.655C30.614 184.5 30.3214 184.339 30.032 184.175C25.3744 181.553 21.1432 178.231 17.4851 174.323C17.3782 174.219 17.2775 174.108 17.1705 174.007C16.6608 173.451 16.1606 172.888 15.6761 172.312L15.1413 171.68C14.5687 170.975 14.0149 170.251 13.4769 169.518C13.3983 169.41 13.3228 169.303 13.241 169.201C11.053 166.153 9.23624 162.852 7.8296 159.369C7.78555 159.264 7.7478 159.151 7.7069 159.053C7.27483 157.936 6.89205 156.808 6.55855 155.67C6.41383 155.192 6.2754 154.721 6.15585 154.225C6.1118 154.079 6.07405 153.937 6.03944 153.795C4.25243 146.786 4.04163 139.504 4.04163 132.274C4.04163 131.43 4.04163 130.582 4.04163 129.745C4.04163 126.82 4.07624 123.877 4.12658 120.936C4.12658 120.174 4.15804 119.416 4.17377 118.651C4.21782 116.709 4.28074 114.768 4.36254 112.827C4.38142 112.286 4.40659 111.749 4.4349 111.211C4.4349 110.901 4.45063 110.592 4.4821 110.282C4.5576 109.156 4.62053 108.04 4.69603 106.927Z" fill="white"/>
<path opacity="0.1" d="M68.2515 66.1682V105.574H44.2432V66.1682H47.6662V52.8262H61.7169V66.1682H68.2515Z" fill="white"/>
<path opacity="0.1" d="M68.2562 106.924H44.251V150.659H68.2562V106.924Z" fill="white"/>
<path opacity="0.1" d="M44.2432 152.015H68.2515V188.374C65.4195 189.191 62.5336 189.807 59.6153 190.217L58.898 190.305C58.5456 190.346 58.1964 190.381 57.8503 190.416C57.5042 190.451 57.1456 190.476 56.7963 190.498H56.6862C56.5352 190.498 56.3716 190.517 56.2237 190.52H56.0633C55.8745 190.52 55.6858 190.539 55.497 190.546C55.2296 190.561 54.9621 190.565 54.6884 190.568C54.572 190.568 54.4619 190.568 54.3455 190.568C54.0749 190.568 53.8075 190.568 53.5369 190.568H52.9423C52.7819 190.568 52.6277 190.568 52.461 190.568L51.8537 190.546C51.5391 190.546 51.1993 190.511 50.8721 190.489L50.2681 190.444L49.5162 190.375C48.9876 190.327 48.4622 190.267 47.9431 190.195L47.3138 190.106L46.9992 190.062C46.4738 189.98 45.9547 189.891 45.4262 189.79C45.0392 189.724 44.6553 189.641 44.2652 189.562L44.2432 152.015Z" fill="#6C63FF"/>
<path opacity="0.1" d="M218.333 61.5141H198.537V105.571H218.333V61.5141Z" fill="#6C63FF"/>
<path opacity="0.1" d="M218.333 106.924V150.662H120.075V131.797H172.411V142.926H198.534V106.924H218.333Z" fill="white"/>
<path opacity="0.1" d="M218.644 198.908H218.329V227.599C214.785 227.298 211.251 226.888 207.727 226.369C191.863 224.035 176.398 219.501 161.774 212.895C157.552 210.985 153.416 208.9 149.366 206.641C142.6 202.875 136.119 198.615 129.973 193.897C128.429 192.708 126.905 191.492 125.402 190.248C124.36 189.385 123.325 188.5 122.277 187.64C121.551 187.049 120.818 186.467 120.075 185.91V152.015H198.273C198.219 151.812 198.166 151.61 198.109 151.411C198.169 151.61 198.226 151.812 198.279 152.015H218.329V198.889C218.436 198.892 218.54 198.901 218.644 198.908Z" fill="white"/>
<path opacity="0.1" d="M269.962 58.2325H257.063V54.2047H262.845V42.2064C263.347 42.3897 263.846 42.5784 264.343 42.7723V54.2047H269.962V58.2325Z" fill="#6C63FF"/>
<path opacity="0.1" d="M301.036 105.574H237.711C237.711 105.574 237.711 105.574 237.733 105.59L237.704 105.574H225.957V61.5174H229.285V94.0819H244.497V74.7961H257.062V59.5857H269.962V74.8088H282.527V94.0946H301.036V105.574Z" fill="white"/>
<path opacity="0.1" d="M225.957 106.924V150.662H301.036V106.924H225.957ZM321.417 202.146L321.521 167.526H301.036V152.034H225.957V228.071C232.112 228.331 238.277 228.257 244.424 227.849H244.531C247.468 227.664 250.391 227.394 253.3 227.04H253.366C268.886 225.225 284.062 221.156 298.419 214.96" fill="white"/>
<path opacity="0.1" d="M330.474 152.015H347.989C347.835 160.896 346.06 169.619 342.178 177.675C338.947 184.368 334.457 190.22 329.153 195.332V167.51H330.474V152.015Z" fill="white"/>
<path opacity="0.1" d="M348 150.662H330.476V114.11H339.958C344.866 125.634 347.984 138.281 348 150.662Z" fill="white"/>
<path opacity="0.1" d="M218.332 73.7621H207.726V87.5751H218.332V73.7621Z" fill="#6C63FF"/>
<path opacity="0.1" d="M218.332 102.394H207.726V105.574H218.332V102.394Z" fill="#6C63FF"/>
<path opacity="0.1" d="M218.332 106.924H207.726V116.204H218.332V106.924Z" fill="#6C63FF"/>
<path opacity="0.1" d="M218.332 131.025H207.726V144.838H218.332V131.025Z" fill="#6C63FF"/>
<path opacity="0.1" d="M218.332 159.657H207.726V173.47H218.332V159.657Z" fill="white"/>
<path opacity="0.1" d="M218.329 198.889C218.436 198.889 218.54 198.889 218.644 198.908H218.329V202.117H207.726V188.288H218.329V198.889Z" fill="white"/>
<path opacity="0.1" d="M218.329 216.913V227.584C214.784 227.282 211.25 226.872 207.726 226.354V216.913H218.329Z" fill="white"/>
<path opacity="0.1" d="M165.528 149.647H120.075V150.662H165.528V149.647Z" fill="#6C63FF"/>
<path opacity="0.1" d="M165.528 152.012H120.075V155.9H165.528V152.012Z" fill="#6C63FF"/>
<path opacity="0.1" d="M165.528 168.648H120.075V174.902H165.528V168.648Z" fill="white"/>
<path opacity="0.1" d="M165.525 187.649V193.903H129.973C128.43 192.719 126.905 191.502 125.399 190.255C124.357 189.391 123.325 188.506 122.275 187.649H165.525Z" fill="white"/>
<path opacity="0.1" d="M165.524 206.648V212.895H161.771C157.553 210.983 153.418 208.898 149.365 206.638L165.524 206.648Z" fill="white"/>
<path opacity="0.1" d="M253.377 111.164H244.429V120.155H253.377V111.164Z" fill="white"/>
<path opacity="0.1" d="M59.6406 69.2696H50.693V78.2612H59.6406V69.2696Z" fill="white"/>
<path opacity="0.1" d="M59.6406 90.1551H50.693V99.1467H59.6406V90.1551Z" fill="white"/>
<path opacity="0.1" d="M59.6406 111.041H50.693V120.032H59.6406V111.041Z" fill="white"/>
<path opacity="0.1" d="M59.6406 131.923H50.693V140.915H59.6406V131.923Z" fill="white"/>
<path opacity="0.1" d="M59.6406 152.809H50.693V161.8H59.6406V152.809Z" fill="white"/>
<path opacity="0.1" d="M59.6406 173.694H50.693V182.686H59.6406V173.694Z" fill="white"/>
<path opacity="0.1" d="M287.536 111.164H278.588V120.155H287.536V111.164Z" fill="white"/>
<path opacity="0.1" d="M253.377 133.343H244.429V142.334H253.377V133.343Z" fill="white"/>
<path opacity="0.1" d="M287.536 133.343H278.588V142.334H287.536V133.343Z" fill="white"/>
<path opacity="0.1" d="M253.377 155.518H244.429V164.509H253.377V155.518Z" fill="white"/>
<path opacity="0.1" d="M287.536 155.518H278.588V164.509H287.536V155.518Z" fill="white"/>
<path opacity="0.1" d="M253.377 177.697H244.429V186.688H253.377V177.697Z" fill="white"/>
<path opacity="0.1" d="M287.536 177.697H278.588V186.688H287.536V177.697Z" fill="white"/>
<path opacity="0.1" d="M253.377 199.875H244.429V208.867H253.377V199.875Z" fill="white"/>
<path opacity="0.1" d="M287.536 199.875H278.588V208.867H287.536V199.875Z" fill="white"/>
<path opacity="0.1" d="M244.429 227.849V222.051H253.374V227.024L244.429 227.849Z" fill="white"/>
<path opacity="0.1" d="M5.99849 94.335V99.4789H36.62V94.335H5.99849ZM9.05025 99.1564H6.55221V94.6511H9.06913L9.05025 99.1564ZM12.0989 99.1564H9.58195V94.6511H12.0989V99.1564ZM15.1412 99.1564H12.6243V94.6511H15.1412V99.1564ZM18.1898 99.1564H15.676V94.6511H18.193L18.1898 99.1564ZM21.2353 99.1564H18.7184V94.6511H21.2353V99.1564ZM24.2839 99.1564H21.767V94.6511H24.2839V99.1564ZM27.3325 99.1564H24.8156V94.6511H27.3325V99.1564ZM30.378 99.1564H27.8611V94.6511H30.378V99.1564ZM33.4235 99.1564H30.9066V94.6511H33.4235V99.1564ZM36.469 99.1564H33.952V94.6511H36.469V99.1564Z" fill="white"/>
<path opacity="0.1" d="M5.99849 109.302V114.446H36.62V109.302H5.99849ZM9.05025 114.12H6.55221V109.628H9.06913L9.05025 114.12ZM12.0989 114.12H9.58195V109.628H12.0989V114.12ZM15.1412 114.12H12.6243V109.628H15.1412V114.12ZM18.1898 114.12H15.676V109.628H18.193L18.1898 114.12ZM21.2353 114.12H18.7184V109.628H21.2353V114.12ZM24.2839 114.12H21.767V109.628H24.2839V114.12ZM27.3325 114.12H24.8156V109.628H27.3325V114.12ZM30.378 114.12H27.8611V109.628H30.378V114.12ZM33.4235 114.12H30.9066V109.628H33.4235V114.12ZM36.469 114.12H33.952V109.628H36.469V114.12Z" fill="white"/>
<path opacity="0.1" d="M5.99849 124.275V129.429H36.62V124.275H5.99849ZM9.05025 129.094H6.55221V124.598H9.06913L9.05025 129.094ZM12.0989 129.094H9.58195V124.598H12.0989V129.094ZM15.1412 129.094H12.6243V124.598H15.1412V129.094ZM18.1898 129.094H15.676V124.598H18.193L18.1898 129.094ZM21.2353 129.094H18.7184V124.598H21.2353V129.094ZM24.2839 129.094H21.767V124.598H24.2839V129.094ZM27.3325 129.094H24.8156V124.598H27.3325V129.094ZM30.378 129.094H27.8611V124.598H30.378V129.094ZM33.4235 129.094H30.9066V124.598H33.4235V129.094ZM36.469 129.094H33.952V124.598H36.469V129.094Z" fill="#6C63FF"/>
<path opacity="0.1" d="M5.99849 139.249V144.386H36.62V139.249H5.99849ZM9.05025 144.067H6.55221V139.568H9.06913L9.05025 144.067ZM12.0989 144.067H9.58195V139.568H12.0989V144.067ZM15.1412 144.067H12.6243V139.568H15.1412V144.067ZM18.1898 144.067H15.676V139.568H18.193L18.1898 144.067ZM21.2353 144.067H18.7184V139.568H21.2353V144.067ZM24.2839 144.067H21.767V139.568H24.2839V144.067ZM27.3325 144.067H24.8156V139.568H27.3325V144.067ZM30.378 144.067H27.8611V139.568H30.378V144.067ZM33.4235 144.067H30.9066V139.568H33.4235V144.067ZM36.469 144.067H33.952V139.568H36.469V144.067Z" fill="#6C63FF"/>
<path opacity="0.1" d="M6.13155 154.219C6.25425 154.702 6.39268 155.186 6.5374 155.663V154.541H9.05432V159.037H7.70777C7.74867 159.141 7.78957 159.255 7.83047 159.353H36.6209V154.219H6.13155ZM12.1092 159.037H9.59232V154.541H12.1092V159.037ZM15.1516 159.037H12.6346V154.541H15.1516V159.037ZM18.2002 159.037H15.677V154.541H18.1939L18.2002 159.037ZM21.2457 159.037H18.7287V154.541H21.2457V159.037ZM24.2943 159.037H21.7774V154.541H24.2943V159.037ZM27.3429 159.037H24.826V154.541H27.3429V159.037ZM30.3884 159.037H27.8714V154.541H30.3884V159.037ZM33.4338 159.037H30.9169V154.541H33.4338V159.037ZM36.4793 159.037H33.9624V154.541H36.4793V159.037Z" fill="#6C63FF"/>
<path opacity="0.1" d="M13.2467 169.192C13.3253 169.293 13.4008 169.407 13.4826 169.508H15.1469V171.667C15.3263 171.882 15.5025 172.097 15.6849 172.3V169.495H18.2019V174.007H17.1825C17.2832 174.111 17.3807 174.222 17.4971 174.323H36.6351V169.192H13.2467ZM21.241 174.007H18.7241V169.514H21.241V174.007ZM24.2897 174.007H21.7727V169.514H24.2897V174.007ZM27.3383 174.007H24.8214V169.514H27.3383V174.007ZM30.3837 174.007H27.8668V169.514H30.3837V174.007ZM33.4292 174.007H30.9123V169.514H33.4292V174.007ZM36.4747 174.007H33.9578V169.514H36.4747V174.007Z" fill="#6C63FF"/>
<path opacity="0.1" d="M30.0443 184.162C30.3306 184.327 30.6232 184.478 30.9189 184.643V184.485H33.4358V185.908L33.9707 186.157V184.485H36.4876V187.22C36.5359 187.244 36.5865 187.263 36.6386 187.276V184.162H30.0443Z" fill="#6C63FF"/>
<path opacity="0.1" d="M198.106 151.408C198.166 151.61 198.216 151.812 198.273 152.012C198.223 151.812 198.169 151.61 198.106 151.408ZM47.6794 58.2227V59.5727H61.7333V58.2227H47.6794ZM198.106 151.408C198.166 151.61 198.216 151.812 198.273 152.012C198.223 151.812 198.169 151.61 198.106 151.408ZM198.106 151.408C198.166 151.61 198.216 151.812 198.273 152.012C198.223 151.812 198.169 151.61 198.106 151.408Z" fill="white"/>
<path d="M145.563 120.039C145.563 120.039 144.323 119.865 144.323 118.05C144.323 116.235 143.436 112.846 143.436 112.846C143.436 112.83 142.668 106.943 141.608 106.008C140.548 105.072 139.185 99.5768 139.185 99.5768C139.185 99.5768 138.952 96.5954 138.477 95.9536C138.002 95.3118 137.361 93.7405 136.414 91.4989C135.467 89.2574 131.518 87.705 131.518 87.705C131.518 87.705 124.379 83.5443 122.357 82.188C122.173 82.0766 122.001 81.9463 121.844 81.7991C121.491 81.3344 119.956 81.3249 119.956 81.3249C119.796 80.3069 119.641 79.1371 119.591 78.0779C119.591 77.9641 119.591 77.8503 119.575 77.7365C121.831 76.3965 123.53 74.2839 124.361 71.7863C124.398 71.6662 124.43 71.5397 124.464 71.4196C124.6 71.3749 124.724 71.3023 124.83 71.2064C124.935 71.1106 125.02 70.9937 125.078 70.8632C125.26 70.4553 125.264 69.9779 125.49 69.5985C125.754 69.1496 126.258 68.9093 126.654 68.571C127.655 67.7174 127.913 66.2788 127.865 64.9699C127.834 63.9108 127.664 62.8422 127.73 61.7894L127.749 61.5238C127.768 61.3657 127.79 61.2076 127.818 61.0559C127.972 60.2718 128.309 59.532 128.498 58.7542C128.687 57.9765 128.705 57.1007 128.265 56.4304C127.62 55.4472 126.277 55.2512 125.097 55.15C123.76 55.0362 122.564 55.1848 121.708 54.0687C121.308 53.4854 120.857 52.9385 120.362 52.4342C120.186 52.2698 118.474 51.2201 118.474 51.1506C116.804 50.3731 114.91 50.2272 113.141 50.7395C112.254 50.9988 111.417 51.4225 110.518 51.6343C108.576 52.0959 106.343 51.5963 104.694 52.7124C103.775 53.3447 103.225 54.3501 102.709 55.3302C102.289 56.1375 101.864 56.9437 101.431 57.7488C100.736 59.0735 100.028 60.4204 99.7357 61.8874C99.6742 62.2066 99.6363 62.53 99.6224 62.8548V62.8706C99.6224 62.9876 99.6224 63.1046 99.6224 63.2216V63.3702C99.6224 63.4808 99.6224 63.5883 99.6413 63.6863C99.6602 63.7843 99.657 63.8159 99.6665 63.8823C99.6759 63.9487 99.6916 64.0973 99.7105 64.1985C99.7294 64.2997 99.7671 64.4767 99.8049 64.6158C99.8206 64.6759 99.8427 64.7328 99.8615 64.7897C99.893 64.8972 99.9307 65.0015 99.9716 65.1059C99.9937 65.1596 100.016 65.2165 100.041 65.2703C100.088 65.3809 100.145 65.4884 100.201 65.5864C100.226 65.6307 100.245 65.6718 100.271 65.7129C100.358 65.8599 100.455 66.0014 100.56 66.1366C101.233 66.9807 102.224 67.5182 102.957 68.3086C102.957 68.3402 102.957 68.3718 102.957 68.4003C102.957 68.4888 102.957 68.5741 102.957 68.6627C102.996 70.4254 103.463 72.152 104.317 73.692C105.172 75.2321 106.387 76.5391 107.859 77.4994C107.859 77.6195 107.875 77.7428 107.881 77.8629C107.942 78.8014 107.931 79.7433 107.846 80.6799C107.718 80.5283 107.558 80.4075 107.377 80.3265C107.196 80.2455 107 80.2064 106.802 80.212C106.667 80.2054 106.531 80.2171 106.399 80.2468L106.371 80.2247V80.2531C105.679 80.4238 104.826 81.1478 104.011 83.2061C104.011 83.2061 101.532 86.0136 99.6445 85.8966C97.7568 85.7796 92.9778 88.8179 92.9778 88.8179C92.9778 88.8179 88.3152 91.8594 87.3147 94.9577C86.7555 96.7147 86.085 98.4339 85.3074 100.105L79.5437 112.04L78.4803 121.509C78.4803 121.509 79.0686 125.72 78.9522 126.362C78.8358 127.004 81.3716 132.793 81.3716 132.793C81.3716 132.793 89.7498 147.586 93.1728 148.345L93.4182 148.171C93.5647 148.248 93.72 148.306 93.8807 148.345L94.5854 147.845C94.6278 148.402 94.6098 148.962 94.532 149.514C94.06 150.975 94.7081 160.507 95.5324 162.376C96.3567 164.244 96.0641 188.744 96.0641 188.744L95.9477 190.906C95.9477 190.906 95.9477 190.976 95.976 191.096L95.9477 191.608L96.0327 191.652C96.1209 192.338 96.0922 193.034 95.9477 193.71C95.652 194.659 95.5324 197.34 95.5324 197.34C95.5324 197.34 93.176 212.478 94.2928 215.519C95.4097 218.561 96.3599 221.893 96.3599 221.893C96.3599 221.893 97.5397 225.687 96.4165 226.335C95.2933 226.983 92.1 228.071 92.7575 229.652C93.3553 231.112 95.6237 235.026 95.9603 235.599L95.932 235.899L95.4695 240.935C95.5444 241.6 95.7239 242.249 96.0012 242.858C96.5077 243.955 97.4925 245.093 99.3644 244.97C99.6791 244.947 100.044 244.909 100.396 244.862C103.823 244.4 108.042 242.864 108.042 242.864C107.822 242.724 107.622 242.557 107.444 242.367C107.275 242.204 107.142 242.007 107.052 241.79C106.961 241.572 106.916 241.338 106.918 241.103C106.969 240.186 105.26 235.817 104.836 234.742C104.77 234.587 104.735 234.498 104.735 234.498C104.735 234.498 108.63 230.407 107.982 226.781C107.982 226.781 103.672 224.252 105.09 222.864C106.509 221.476 109.045 217.489 109.045 217.489C109.045 217.489 109.162 202.582 109.045 200.356C108.924 198.811 108.997 197.257 109.262 195.731C109.309 195.5 109.366 195.275 109.426 195.054C111.388 195.348 113.369 195.5 115.353 195.506C116.077 195.506 116.813 195.506 117.555 195.462C117.555 195.673 117.565 195.9 117.584 196.145C117.747 199.838 118.053 206.313 118.301 208.719C118.653 212.168 120.601 221.463 120.601 221.463C120.601 221.463 116.885 223.859 121.249 229.765C121.249 229.765 121.249 231.906 120.96 232.216C120.651 233.228 120.402 234.259 120.214 235.301C120.031 236.414 119.956 237.54 120.252 238.125C120.96 239.522 125.207 239.408 125.207 239.408L125.311 239.389C126.113 239.306 126.923 239.384 127.695 239.617C128.466 239.851 129.184 240.237 129.807 240.752C131.421 242.055 137.546 241.482 140.862 241.068C142.162 240.904 143.03 240.752 143.03 240.752C143.072 240.604 143.087 240.45 143.074 240.297C143.039 239.478 142.401 237.682 138.072 236.079C138.072 236.079 134 233.328 134.057 230.932H133.972H133.5C133.843 230.913 134.063 230.932 134.063 230.932C134.063 230.932 132.468 225.083 133.119 224.609C133.771 224.135 131.82 217.653 131.82 217.653C131.82 217.653 130.703 206.777 130.643 206.015C130.646 205.362 130.745 204.712 130.936 204.087L130.643 198.124C130.643 198.124 130.587 196.142 130.643 195.497C130.634 194.937 130.589 194.378 130.508 193.824C130.48 193.603 130.452 193.372 130.42 193.144C131.946 192.756 132.937 192.395 132.937 192.395L132.761 171.639C134.057 169.11 134.296 163.561 134.29 159.625C134.29 157.096 134.177 155.224 134.177 155.224L135.948 152.319C135.948 152.319 136.357 148.841 135.709 148.079C135.422 147.734 135.551 147.377 135.787 147.083C135.91 146.985 136.039 146.897 136.174 146.818C136.174 146.818 136.156 146.789 136.133 146.748C136.257 146.644 136.389 146.55 136.527 146.467C136.527 146.467 135.898 145.486 136.461 145.072C136.989 145.433 137.461 145.705 137.82 145.926C137.795 146.157 137.769 146.29 137.769 146.29L137.921 145.973C138.267 146.169 138.477 146.29 138.477 146.29C138.477 146.29 141.252 140.735 141.193 139.916C141.133 139.097 143.08 135.648 143.08 135.648C143.08 135.648 143.316 133.836 144.38 133.077C145.443 132.318 145.204 126.82 145.204 126.82C145.204 126.82 145.5 123.956 146.207 122.786C146.915 121.616 145.563 120.039 145.563 120.039ZM92.4681 117.601L92.5216 118.926C92.2069 118.417 91.9804 118.05 91.9804 118.05L92.4681 117.601Z" fill="url(#paint0_linear_0_883)"/>
<path d="M138.631 143.89L137.952 146.799C137.952 146.799 132.509 144.007 131.527 140.46C130.546 136.912 133.17 135.565 133.17 135.565L138.241 137.725L138.631 143.89Z" fill="white"/>
<path opacity="0.1" d="M138.631 143.89L137.952 146.799C137.952 146.799 132.509 144.007 131.527 140.46C130.546 136.912 133.17 135.565 133.17 135.565L138.241 137.725L138.631 143.89Z" fill="black"/>
<path d="M108.085 242.883C108.085 242.883 103.051 244.742 99.5905 244.976C97.7531 245.099 96.7872 243.967 96.2902 242.876C96.0186 242.27 95.8434 241.625 95.771 240.964L96.2209 235.952L96.46 233.284L103.813 231.365L104.854 234.565L104.952 234.808C105.37 235.877 107.047 240.224 106.997 241.131C106.994 241.364 107.039 241.594 107.128 241.809C107.216 242.023 107.347 242.217 107.512 242.38C107.681 242.571 107.874 242.74 108.085 242.883Z" fill="white"/>
<path d="M142.469 240.334C142.481 240.486 142.466 240.64 142.425 240.786C142.425 240.786 131.659 242.592 129.456 240.786C128.835 240.259 128.112 239.868 127.331 239.638C126.551 239.408 125.732 239.345 124.926 239.452C124.926 239.452 120.76 239.566 120.065 238.188C119.776 237.609 119.851 236.487 120.03 235.38C120.213 234.343 120.457 233.318 120.76 232.31L120.927 232.177L121.918 231.377L133.521 231.033H133.609C133.553 233.417 137.548 236.151 137.548 236.151C141.792 237.732 142.418 239.519 142.469 240.334Z" fill="white"/>
<path opacity="0.1" d="M142.467 240.334C142.478 240.487 142.462 240.64 142.42 240.786C142.42 240.786 131.657 242.592 129.455 240.786C128.834 240.259 128.111 239.868 127.331 239.639C126.552 239.409 125.733 239.345 124.927 239.452C124.927 239.452 120.759 239.566 120.067 238.187C119.777 237.606 119.849 236.487 120.029 235.38C121.633 235.541 124.166 235.943 125.16 236.901C126.664 238.358 129.212 239.813 130.776 239.926C132 240.005 139.321 240.239 142.467 240.334Z" fill="black"/>
<path opacity="0.1" d="M108.087 242.883C108.087 242.883 103.053 244.742 99.5926 244.976C97.7553 245.099 96.7894 243.967 96.2955 242.873C97.576 243.306 99.3535 243.762 100.288 243.344C101.395 242.851 105.322 242.532 107.524 242.396C107.692 242.58 107.881 242.744 108.087 242.883Z" fill="black"/>
<path d="M115.553 93.0702C111.4 91.4483 106.058 86.0894 107.392 83.5854C107.688 82.9535 107.864 82.2716 107.911 81.5746C107.997 80.6286 108.009 79.6772 107.949 78.7292C107.855 77.1766 107.669 75.6309 107.392 74.1006C107.392 74.1006 120.357 74.3946 119.602 76.3137C119.382 76.8765 119.347 77.8534 119.407 78.9473C119.467 80.0413 119.624 81.2775 119.788 82.3239C120.014 83.7593 120.241 84.8532 120.241 84.8532C120.241 84.8532 119.448 85.9693 118.982 86.0293C118.517 86.0894 121.512 95.3814 115.553 93.0702Z" fill="#CF6F80"/>
<path opacity="0.1" d="M104.94 234.808L104.842 234.915C100.966 230.205 96.2786 236.076 96.2786 236.076L96.2094 235.952L96.4485 233.284L103.801 231.365L104.842 234.565L104.94 234.808Z" fill="black"/>
<path opacity="0.1" d="M133.61 231.365C133.61 231.365 130.779 231.305 129.268 232.645C127.758 233.986 120.459 232.936 120.774 232.645C120.867 232.501 120.923 232.336 120.937 232.165L121.928 231.365L133.531 231.02C133.576 231.232 133.61 231.365 133.61 231.365Z" fill="black"/>
<path d="M109.764 194.371C109.553 194.895 109.393 195.438 109.286 195.993C109.023 197.512 108.95 199.059 109.069 200.596C109.185 202.809 109.069 217.64 109.069 217.64C109.069 217.64 106.58 221.596 105.193 222.99C103.805 224.384 108.024 226.888 108.024 226.888C108.653 230.492 104.84 234.565 104.84 234.565C100.964 229.854 96.2763 235.728 96.2763 235.728C96.2763 235.728 93.7279 231.302 93.0924 229.721C92.4569 228.14 95.581 227.046 96.679 226.404C97.777 225.763 96.6256 221.978 96.6256 221.978C96.6256 221.978 95.6974 218.662 94.5963 215.636C93.4951 212.61 95.8107 197.548 95.8107 197.548C95.8107 197.548 95.9302 194.874 96.2165 193.941C96.361 193.268 96.3897 192.575 96.3015 191.892C96.2826 191.662 96.2606 191.469 96.2449 191.339C96.2291 191.209 96.2165 191.149 96.2165 191.149L96.2606 191.074L97.8337 188.127C97.8337 188.127 110.519 192.515 109.764 194.371Z" fill="#6C63FF"/>
<path d="M133.614 231.017C133.614 231.017 130.782 230.957 129.272 232.282C127.762 233.606 120.463 232.572 120.777 232.282C121.092 231.991 121.067 229.838 121.067 229.838C116.785 223.963 120.438 221.58 120.438 221.58C120.438 221.58 118.525 212.332 118.179 208.902C117.936 206.505 117.637 200.065 117.477 196.388C117.408 194.807 117.367 193.72 117.367 193.72L120.865 193.011L121.315 192.92L129.753 191.219C129.753 191.219 129.986 192.8 130.143 194.093C130.222 194.645 130.266 195.201 130.276 195.759C130.219 196.391 130.276 198.37 130.276 198.37L130.562 204.305C130.375 204.927 130.278 205.573 130.276 206.224C130.332 206.979 131.43 217.798 131.43 217.798C131.43 217.798 133.34 224.254 132.689 224.719C132.037 225.184 133.614 231.017 133.614 231.017Z" fill="#6C63FF"/>
<path opacity="0.1" d="M119.605 76.3137C119.385 76.8765 119.35 77.8534 119.41 78.9473C117.673 79.9983 115.677 80.5356 113.65 80.4975C111.623 80.4595 109.648 79.8477 107.952 78.7324C107.858 77.1787 107.672 75.632 107.395 74.1006C107.395 74.1006 120.36 74.3883 119.605 76.3137Z" fill="black"/>
<path d="M124.617 69.3265C124.62 70.4657 124.441 71.5981 124.089 72.6809C123.3 75.107 121.684 77.175 119.525 78.5194C117.367 79.8637 114.804 80.3979 112.292 80.0275C109.779 79.6571 107.477 78.4059 105.794 76.4952C104.11 74.5844 103.153 72.1371 103.091 69.5857C103.091 69.4972 103.091 69.415 103.091 69.3265C103.067 67.8903 103.327 66.4637 103.857 65.1298C104.387 63.7958 105.176 62.5813 106.178 61.557C107.18 60.5327 108.375 59.7192 109.693 59.1638C111.011 58.6085 112.426 58.3225 113.856 58.3225C115.285 58.3225 116.7 58.6085 118.018 59.1638C119.336 59.7192 120.531 60.5327 121.533 61.557C122.535 62.5813 123.324 63.7958 123.854 65.1298C124.384 66.4637 124.645 67.8903 124.62 69.3265H124.617Z" fill="#CF6F80"/>
<path opacity="0.1" d="M115.553 93.0699C111.4 91.448 106.058 86.0891 107.392 83.5851C107.688 82.9532 107.864 82.2712 107.911 81.5743L113.596 86.2693L117.114 89.1685L119.788 82.3268C120.014 83.7621 120.241 84.8561 120.241 84.8561C120.241 84.8561 119.448 85.9721 118.982 86.0322C118.517 86.0922 121.512 95.381 115.553 93.0699Z" fill="black"/>
<path d="M130.257 113.82L125.51 193.966L119.318 194.374L103.285 147.902L105.916 92.7287L106.469 81.0719L113.598 86.9556L117.119 89.8548L119.872 82.8139L124.991 87.2971L130.257 113.82Z" fill="#6C63FF"/>
<path opacity="0.1" d="M109.769 194.371C109.558 194.895 109.398 195.438 109.291 195.993C104.786 195.294 100.41 193.92 96.31 191.918L96.225 191.874L96.2533 191.365L96.2691 191.099L97.8422 188.152C97.8422 188.152 110.524 192.515 109.769 194.371Z" fill="black"/>
<path opacity="0.1" d="M120.941 196.006C119.789 196.202 118.628 196.335 117.461 196.404C117.392 194.823 117.351 193.736 117.351 193.736L120.85 193.027L120.941 196.006Z" fill="black"/>
<path opacity="0.1" d="M130.124 194.109C127.887 194.694 124.433 195.351 121.34 194.94L121.296 192.936L129.734 191.235C129.734 191.235 129.967 192.8 130.124 194.109Z" fill="black"/>
<path opacity="0.1" d="M121.285 195.307C108.386 197.52 96.5719 191.175 96.5719 191.175L96.6852 189.025C96.6852 189.025 96.9778 164.652 96.1661 162.783C95.3544 160.915 94.722 151.44 95.1813 149.985C95.6407 148.531 93.5044 126.722 93.5044 126.722L93.1583 117.87L80.4919 112.713L86.155 100.851C86.9199 99.1877 87.5778 97.4769 88.1245 95.729C89.1092 92.6496 93.6806 89.624 93.6806 89.624C93.6806 89.624 98.3684 86.6015 100.221 86.7153C102.075 86.8291 104.503 84.0406 104.503 84.0406C106.297 79.4468 107.92 81.5271 107.92 81.5271C107.92 81.7453 107.92 81.5271 107.832 82.2069C107.203 87.2496 118.007 103.184 118.161 103.465L119.19 128.651L120.231 160.523L121.285 195.307Z" fill="black"/>
<path d="M120.934 195.307C108.035 197.52 96.2181 191.175 96.2181 191.175L96.3345 189.025C96.3345 189.025 96.6271 164.652 95.8123 162.783C94.9974 160.915 94.3682 151.44 94.8307 149.985C95.2932 148.531 93.1538 126.722 93.1538 126.722L92.8046 117.87L80.1319 112.694L85.7949 100.832C86.5582 99.1679 87.216 97.4572 87.7644 95.71C88.746 92.6306 93.3205 89.6049 93.3205 89.6049C93.3205 89.6049 98.0083 86.5824 99.8582 86.6962C101.708 86.81 104.14 84.0215 104.14 84.0215C105.937 79.4277 107.916 81.508 107.916 81.508C107.916 81.7262 107.727 81.8242 107.827 82.1878C109.212 87.0788 117.656 103.165 117.81 103.446L118.852 128.632L119.893 160.504L120.934 195.307Z" fill="white"/>
<path opacity="0.1" d="M117.462 104.164C116.074 103.582 108.725 95.1504 108.725 95.1504V93.2313C108.458 92.599 106.869 92.9847 105.579 93.4273L106.133 81.7705L106.762 82.2953C108.14 87.1832 117.301 103.883 117.462 104.164Z" fill="black"/>
<path d="M117.809 103.466C116.419 102.884 109.069 94.4518 109.069 94.4518V92.5327C108.802 91.9004 107.213 92.2861 105.923 92.7287L106.48 81.0719L107.109 81.5967C108.49 86.4846 117.655 103.187 117.809 103.466Z" fill="white"/>
<path opacity="0.1" d="M96.5729 145.518C96.7459 145.518 105.543 144.588 105.543 144.588C105.543 144.588 110.869 155.113 110.52 157.674C110.171 160.235 109.538 162.502 107.396 162.101C105.253 161.699 95.865 162.417 95.865 162.417L96.5729 145.518Z" fill="black"/>
<path d="M96.2206 144.819C96.3937 144.819 105.19 143.89 105.19 143.89C105.19 143.89 110.514 154.418 110.167 156.976C109.821 159.533 109.183 161.803 107.043 161.402C104.904 161 95.5127 161.718 95.5127 161.718L96.2206 144.819Z" fill="white"/>
<path d="M102.851 139.878C102.851 139.878 110.924 144.238 111.098 145.569C111.271 146.9 106.989 144.987 106.064 144.756C105.455 144.609 104.835 144.511 104.211 144.465L98.041 144.633L102.851 139.878Z" fill="#CF6F80"/>
<path opacity="0.1" d="M115.211 104.708C115.68 104.708 116.06 104.326 116.06 103.855C116.06 103.383 115.68 103.001 115.211 103.001C114.741 103.001 114.361 103.383 114.361 103.855C114.361 104.326 114.741 104.708 115.211 104.708Z" fill="black"/>
<path d="M115.211 104.36C115.68 104.36 116.06 103.978 116.06 103.507C116.06 103.035 115.68 102.653 115.211 102.653C114.741 102.653 114.361 103.035 114.361 103.507C114.361 103.978 114.741 104.36 115.211 104.36Z" fill="#3F3D56"/>
<path opacity="0.1" d="M116.768 141.661C117.237 141.661 117.618 141.279 117.618 140.807C117.618 140.336 117.237 139.954 116.768 139.954C116.299 139.954 115.919 140.336 115.919 140.807C115.919 141.279 116.299 141.661 116.768 141.661Z" fill="black"/>
<path d="M116.768 141.31C117.237 141.31 117.618 140.928 117.618 140.456C117.618 139.985 117.237 139.603 116.768 139.603C116.299 139.603 115.919 139.985 115.919 140.456C115.919 140.928 116.299 141.31 116.768 141.31Z" fill="#3F3D56"/>
<path opacity="0.1" d="M116.056 123.184C116.525 123.184 116.905 122.802 116.905 122.331C116.905 121.859 116.525 121.477 116.056 121.477C115.587 121.477 115.206 121.859 115.206 122.331C115.206 122.802 115.587 123.184 116.056 123.184Z" fill="black"/>
<path d="M116.056 122.836C116.525 122.836 116.905 122.454 116.905 121.983C116.905 121.511 116.525 121.129 116.056 121.129C115.587 121.129 115.206 121.511 115.206 121.983C115.206 122.454 115.587 122.836 116.056 122.836Z" fill="#3F3D56"/>
<path d="M135.636 144.288C135.636 144.288 136.215 145.161 135.636 145.568C135.057 145.976 135.692 146.963 135.692 146.963C135.692 146.963 134.248 147.813 134.884 148.578C135.519 149.343 135.117 152.799 135.117 152.799L133.38 155.689C133.38 155.689 133.484 157.551 133.49 160.068C133.49 163.994 133.26 169.514 131.989 172.031L132.166 192.68C132.166 192.68 126.084 194.912 120.994 194.232L120.239 161.098C120.239 161.098 121.34 142.309 121.746 138.705C121.983 136.833 122.08 134.947 122.035 133.061C122.035 133.061 121.862 127.421 121.28 124.803C121.28 124.803 120.651 113.462 120.588 110.323C120.559 108.821 120.638 104.439 120.726 100.272C120.824 95.7163 120.934 91.4197 120.934 91.4197L119.786 82.289C119.786 82.289 120.934 82.172 121.28 82.6367C121.435 82.7823 121.604 82.9125 121.783 83.0256C123.765 84.3725 130.769 88.5142 130.769 88.5142C130.769 88.5142 134.645 90.0634 135.573 92.2828C136.501 94.5022 137.146 96.0767 137.596 96.709C138.046 97.3414 138.291 100.313 138.291 100.313C138.291 100.313 139.625 105.783 140.667 106.709C141.708 107.636 142.469 113.529 142.469 113.529L133.267 120.8C133.267 120.8 132.458 132.897 132.285 133.365C132.112 133.833 135.636 144.288 135.636 144.288Z" fill="white"/>
<path d="M135.984 144.288C135.984 144.288 136.559 145.161 135.984 145.568C135.408 145.976 136.037 146.963 136.037 146.963C136.037 146.963 134.602 147.823 135.232 148.588C135.861 149.353 135.464 152.808 135.464 152.808L133.728 155.698C133.728 155.698 133.832 157.56 133.841 160.077C133.841 164.004 133.611 169.524 132.34 172.041L132.513 192.689C132.513 192.689 126.422 194.921 121.338 194.241L120.586 161.108C120.586 161.108 121.687 142.318 122.093 138.714C122.331 136.843 122.427 134.956 122.38 133.071C122.38 133.071 122.207 127.43 121.628 124.812C121.628 124.812 120.998 113.472 120.932 110.332C120.904 108.831 120.986 104.449 121.071 100.282C121.168 95.7257 121.278 91.4291 121.278 91.4291L119.762 82.1751C119.762 82.1751 121.279 82.1751 121.628 82.6462C121.781 82.7934 121.95 82.9238 122.131 83.035C124.113 84.3819 131.12 88.5236 131.12 88.5236C131.12 88.5236 134.993 90.0728 135.921 92.2922C136.849 94.5117 137.494 96.0861 137.947 96.7185C138.4 97.3508 138.639 100.323 138.639 100.323C138.639 100.323 139.973 105.792 141.014 106.719C142.056 107.645 142.808 113.526 142.808 113.526L133.605 120.797C133.605 120.797 132.797 132.894 132.62 133.361C132.444 133.829 135.984 144.288 135.984 144.288Z" fill="white"/>
<path opacity="0.1" d="M124.966 94.1136L125.796 96.5481L121.423 100.974C121.521 96.4216 121.631 92.1218 121.631 92.1218L120.114 82.8678C120.114 82.8678 121.631 82.8678 121.98 83.3389C122.133 83.4857 122.302 83.6151 122.483 83.7246L126.202 94.5057L124.966 94.1136Z" fill="black"/>
<path d="M124.613 93.4145L125.447 95.849L121.074 100.275C121.172 95.7194 121.282 91.4227 121.282 91.4227L119.762 82.1687C119.762 82.1687 121.282 82.1687 121.628 82.6398C121.782 82.7862 121.951 82.9164 122.131 83.0287L125.853 93.8066L124.613 93.4145Z" fill="white"/>
<path opacity="0.1" d="M124.617 69.3265C124.62 70.4657 124.441 71.5981 124.089 72.6809C124.029 72.6902 123.969 72.6875 123.91 72.6728C123.852 72.6582 123.797 72.6319 123.749 72.5956C123.667 69.7501 122.273 67.0786 120.559 64.8054C120.077 64.119 119.494 63.5112 118.828 63.0033C118.156 62.4955 117.319 62.2577 116.481 62.3362C115.537 62.4658 114.704 63.1107 113.75 63.1929C112.492 63.2973 111.366 62.4215 110.117 62.3773C109.609 62.3821 109.108 62.4957 108.647 62.7105C108.187 62.9253 107.777 63.2364 107.446 63.6229C106.789 64.403 106.302 65.3117 106.014 66.2913C105.519 67.7768 105.25 69.3286 105.215 70.8946C105.199 71.7799 105.114 72.8896 104.296 73.2121C104.358 72.561 104.284 71.9042 104.08 71.2833C103.876 70.6623 103.546 70.0907 103.11 69.6047L103.091 69.5857C103.091 69.4972 103.091 69.415 103.091 69.3265C103.067 67.8903 103.327 66.4637 103.857 65.1298C104.387 63.7958 105.176 62.5813 106.178 61.557C107.18 60.5327 108.375 59.7192 109.693 59.1638C111.011 58.6085 112.426 58.3225 113.856 58.3225C115.285 58.3225 116.7 58.6085 118.018 59.1638C119.336 59.7192 120.531 60.5327 121.533 61.557C122.535 62.5813 123.324 63.7958 123.854 65.1298C124.384 66.4637 124.645 67.8903 124.62 69.3265H124.617Z" fill="black"/>
<path d="M118.311 52.1492C116.677 51.3764 114.817 51.2303 113.083 51.7382C112.211 51.9975 111.39 52.418 110.506 52.6298C108.618 53.0882 106.416 52.5919 104.796 53.7016C103.896 54.3339 103.355 55.333 102.851 56.3036L101.593 58.7127C100.907 60.0311 100.215 61.3716 99.9285 62.8228C99.6422 64.274 99.8152 65.8991 100.731 67.0657C101.398 67.9162 102.382 68.4505 103.106 69.2504C103.54 69.7369 103.868 70.3082 104.072 70.9284C104.276 71.5486 104.349 72.2043 104.289 72.8546C105.11 72.5384 105.189 71.4255 105.208 70.5403C105.243 68.9743 105.512 67.4224 106.007 65.937C106.294 64.9571 106.782 64.0482 107.438 63.2686C107.77 62.8824 108.18 62.5715 108.64 62.3568C109.101 62.142 109.602 62.0282 110.109 62.0229C111.368 62.0672 112.497 62.9398 113.743 62.8355C114.687 62.7564 115.524 62.1083 116.474 61.9818C117.312 61.9022 118.149 62.1401 118.821 62.6489C119.486 63.1561 120.069 63.7641 120.548 64.451C122.266 66.7242 123.66 69.3895 123.742 72.2412C124.097 72.5036 124.61 72.1622 124.786 71.7575C124.962 71.3528 124.969 70.8786 125.192 70.4929C125.45 70.0471 125.944 69.81 126.331 69.4748C127.313 68.6244 127.558 67.1921 127.52 65.8927C127.482 64.5933 127.231 63.2749 127.476 61.9976C127.624 61.2136 127.958 60.4801 128.14 59.7055C128.322 58.9309 128.344 58.0614 127.913 57.3943C127.284 56.4142 125.96 56.2214 124.805 56.1297C123.493 56.0159 122.32 56.1613 121.483 55.0516C121.09 54.4725 120.648 53.9288 120.161 53.4265C119.995 53.2621 118.311 52.2188 118.311 52.1492Z" fill="#512E4E"/>
<path opacity="0.1" d="M84.1166 118.821L80.8288 112.713L79.7875 122.138C79.7875 122.138 80.3664 126.324 80.25 126.966C80.1335 127.608 82.6221 133.362 82.6221 133.362C82.6221 133.362 90.843 148.076 94.2 148.835L105.542 140.69L102.534 136.852C102.534 136.852 101.493 136.444 101.232 136.852C101.232 136.852 95.6472 127.197 95.0683 126.498C94.4894 125.799 94.6027 124.405 94.6027 124.405C94.6027 124.405 93.7344 123.475 94.0238 122.603C94.3132 121.73 92.3469 118.704 92.3469 118.704L94.1402 117.019L84.1166 118.821Z" fill="black"/>
<path d="M81.0005 112.018L80.1322 112.713L79.0908 122.138C79.0908 122.138 79.6697 126.324 79.5533 126.966C79.4369 127.607 81.9287 133.362 81.9287 133.362C81.9287 133.362 90.1464 148.076 93.5033 148.834L104.848 140.69L101.838 136.852C101.838 136.852 100.796 136.444 100.535 136.852C100.535 136.852 94.9506 127.196 94.3717 126.498C93.7928 125.799 93.9092 124.405 93.9092 124.405C93.9092 124.405 93.0409 123.475 93.3303 122.603C93.6198 121.73 91.6503 118.704 91.6503 118.704L93.4436 117.019L81.0005 112.018Z" fill="white"/>
<path opacity="0.1" d="M134.881 148.939C135.51 149.707 135.114 153.157 135.114 153.157L133.377 156.046C133.377 156.046 133.481 157.912 133.487 160.425L130.568 161.342C130.304 161.425 130.024 161.443 129.752 161.395C129.48 161.347 129.223 161.234 129.002 161.066C128.782 160.898 128.605 160.68 128.486 160.429C128.367 160.178 128.31 159.903 128.318 159.625L128.822 143.308L135.633 145.926C135.054 146.331 135.69 147.323 135.69 147.323C135.69 147.323 134.246 148.171 134.881 148.939Z" fill="black"/>
<path d="M135.236 148.588C135.866 149.356 135.469 152.809 135.469 152.809L133.733 155.698C133.733 155.698 133.836 157.561 133.846 160.077L130.873 161.01C130.614 161.091 130.34 161.108 130.074 161.061C129.807 161.014 129.556 160.903 129.341 160.739C129.125 160.574 128.952 160.36 128.835 160.115C128.719 159.87 128.662 159.6 128.67 159.328L129.177 142.96L135.992 145.578C135.409 145.983 136.045 146.972 136.045 146.972C136.045 146.972 134.607 147.823 135.236 148.588Z" fill="white"/>
<path d="M137.492 140.81C137.492 140.81 137.03 143.779 135.872 143.953C134.714 144.127 134.195 148.755 133.041 148.591C131.886 148.426 132.65 144.288 132.691 143.485C132.732 142.682 131.433 139.356 132.405 138.6C133.377 137.845 136.454 138.6 136.454 138.6L137.492 140.81Z" fill="#CF6F80"/>
<path opacity="0.1" d="M139.954 117.949L142.137 113.522C142.137 113.522 143.006 116.896 143.006 118.698C143.006 120.5 144.22 120.677 144.22 120.677C144.22 120.677 145.551 122.258 144.849 123.409C144.148 124.56 143.865 127.424 143.865 127.424C143.865 127.424 144.094 132.89 143.053 133.646C142.011 134.402 141.794 136.207 141.794 136.207C141.794 136.207 139.882 139.637 139.941 140.453C140.001 141.269 137.28 146.792 137.28 146.792C137.28 146.792 138.61 139.928 130.855 136.963C130.855 136.963 130.795 134.632 131.374 133.994C131.953 133.355 132.856 133.064 132.29 129.836C131.724 126.608 132.126 122.751 132.126 121.977C132.126 121.202 133.863 116.371 133.863 116.371L139.954 117.949Z" fill="black"/>
<path d="M140.897 112.89L142.804 113.523C142.804 113.523 143.676 116.896 143.676 118.698C143.676 120.5 144.89 120.677 144.89 120.677C144.89 120.677 146.221 122.258 145.519 123.409C144.818 124.56 144.538 127.424 144.538 127.424C144.538 127.424 144.767 132.891 143.726 133.646C142.684 134.402 142.452 136.207 142.452 136.207C142.452 136.207 140.542 139.637 140.602 140.453C140.662 141.269 137.937 146.792 137.937 146.792C137.937 146.792 139.271 139.928 131.513 136.963C131.513 136.963 131.456 134.633 132.035 133.994C132.614 133.355 133.517 133.065 132.95 129.837C132.384 126.609 132.787 122.751 132.787 121.977C132.787 121.202 134.523 116.371 134.523 116.371L140.897 112.89Z" fill="white"/>
<path opacity="0.1" d="M98.7846 227.616C98.7846 227.616 101.824 225.696 103.818 227.091C105.813 228.485 98.7846 227.616 98.7846 227.616Z" fill="black"/>
<path opacity="0.1" d="M122.4 221.681C122.4 221.681 125.09 221.333 127.349 223.777C129.608 226.221 122.4 221.681 122.4 221.681Z" fill="black"/>
<g opacity="0.1">
<path d="M126.335 68.7825C125.948 69.1176 125.451 69.3579 125.193 69.8037C124.973 70.1862 124.967 70.6573 124.791 71.0683C124.614 71.4793 124.102 71.8145 123.746 71.5552C123.664 68.7098 122.267 66.0382 120.553 63.7619C120.073 63.0749 119.491 62.4669 118.825 61.9597C118.152 61.451 117.314 61.2131 116.475 61.2926C115.531 61.4223 114.701 62.0672 113.748 62.1463C112.489 62.2538 111.36 61.378 110.111 61.3337C109.603 61.3388 109.102 61.4529 108.642 61.6683C108.182 61.8836 107.773 62.1954 107.443 62.5826C106.786 63.361 106.298 64.2689 106.011 65.2478C105.517 66.7333 105.247 68.2851 105.212 69.8511C105.193 70.7332 105.111 71.8334 104.3 72.1622C104.319 72.3958 104.319 72.6305 104.3 72.8641C105.118 72.548 105.2 71.4351 105.218 70.5498C105.253 68.9838 105.523 67.432 106.018 65.9465C106.305 64.9666 106.792 64.0578 107.449 63.2781C107.78 62.892 108.189 62.5812 108.649 62.3664C109.109 62.1516 109.61 62.0378 110.117 62.0325C111.375 62.0767 112.508 62.9493 113.754 62.845C114.698 62.7659 115.535 62.1178 116.482 61.9914C117.32 61.9118 118.158 62.1497 118.832 62.6585C119.497 63.1656 120.08 63.7736 120.559 64.4606C122.274 66.7338 123.671 69.399 123.752 72.2508C124.108 72.5132 124.621 72.1717 124.797 71.767C124.973 71.3623 124.979 70.8881 125.2 70.5024C125.458 70.0566 125.955 69.8195 126.342 69.4844C127.323 68.6339 127.569 67.2017 127.531 65.9023C127.531 65.8612 127.531 65.8201 127.531 65.7821C127.471 66.9077 127.172 68.0553 126.335 68.7825Z" fill="black"/>
<path d="M103.11 68.558C102.387 67.7581 101.399 67.2238 100.735 66.3765C100.176 65.6264 99.8569 64.7235 99.8196 63.7871C99.7206 64.9572 100.046 66.1239 100.735 67.072C101.399 67.9225 102.387 68.4568 103.11 69.2567C103.805 70.0391 104.222 71.0309 104.297 72.0769C104.345 71.4403 104.264 70.8005 104.061 70.1959C103.857 69.5912 103.534 69.0341 103.11 68.558Z" fill="black"/>
<path d="M128.144 59.0131C127.959 59.7877 127.628 60.5243 127.477 61.3052C127.388 61.8271 127.355 62.3571 127.38 62.8861C127.39 62.5848 127.423 62.2846 127.477 61.9882C127.628 61.2041 127.959 60.4706 128.144 59.696C128.253 59.2688 128.288 58.8262 128.248 58.3871C128.229 58.598 128.194 58.8072 128.144 59.0131Z" fill="black"/>
</g>
<path opacity="0.1" d="M42.0946 240.47C59.0255 240.47 72.7507 238.255 72.7507 235.522C72.7507 232.79 59.0255 230.574 42.0946 230.574C25.1637 230.574 11.4385 232.79 11.4385 235.522C11.4385 238.255 25.1637 240.47 42.0946 240.47Z" fill="#6C63FF"/>
<path d="M43.0849 140.738H41.1122V185.37H43.0849V140.738Z" fill="#535461"/>
<path d="M55.484 185.234L55.3613 187.245L55.1851 190.09L55.1128 191.272L54.9397 194.118L54.8642 195.3L54.688 198.146L52.6997 230.416C52.6132 231.805 52.0036 233.108 50.9948 234.061C49.9859 235.013 48.6538 235.544 47.2694 235.544H36.9312C35.5471 235.544 34.2153 235.013 33.207 234.06C32.1987 233.108 31.5897 231.804 31.5041 230.416L29.5251 198.124L29.3489 195.278L29.2766 194.096L29.1004 191.25L29.028 190.068L28.8518 187.222L28.726 185.212C28.7041 184.825 28.7612 184.437 28.8937 184.073C29.0262 183.709 29.2313 183.376 29.4964 183.095C29.7615 182.813 30.0811 182.589 30.4356 182.436C30.79 182.283 31.1718 182.204 31.5575 182.205H52.7028C53.0871 182.208 53.4666 182.291 53.818 182.447C54.1693 182.604 54.485 182.831 54.7457 183.115C55.0063 183.398 55.2062 183.733 55.3332 184.097C55.4602 184.462 55.5115 184.849 55.484 185.234Z" fill="#3F3D56"/>
<path d="M55.3609 187.245L55.1847 190.081H29.015L28.8389 187.245H55.3609Z" fill="#9D9CB5"/>
<path d="M55.1143 191.263L54.9413 194.102H29.2655L29.0893 191.263H55.1143Z" fill="#9D9CB5"/>
<path d="M54.8599 195.288L54.6868 198.124H29.5082L29.332 195.288H54.8599Z" fill="#9D9CB5"/>
<path d="M25.8223 157.466C37.3089 165.819 42.1037 178.882 42.1037 178.882C42.1037 178.882 28.2606 178.405 16.7709 170.052C5.28111 161.699 0.495817 148.639 0.495817 148.639C0.495817 148.639 14.3326 149.113 25.8223 157.466Z" fill="#6C63FF"/>
<path d="M0.48799 148.639C0.48799 148.639 14.8596 156.653 19.4687 163.289C24.0778 169.926 42.1053 178.882 42.1053 178.882" stroke="#535461" stroke-width="2" stroke-miterlimit="10"/>
<path d="M33.2402 140.64C39.4916 145.183 42.1061 152.293 42.1061 152.293C42.1061 152.293 34.5711 152.034 28.3165 147.491C22.062 142.948 19.4538 135.834 19.4538 135.834C19.4538 135.834 26.9857 136.093 33.2402 140.64Z" fill="#6C63FF"/>
<path d="M19.4538 135.834C19.4538 135.834 27.2751 140.197 29.7826 143.807C32.2901 147.418 42.1061 152.293 42.1061 152.293" stroke="#535461" stroke-width="2" stroke-miterlimit="10"/>
<path d="M51.1843 151.933C44.0016 159.865 42.482 170.232 42.482 170.232C42.482 170.232 52.6095 167.734 59.7859 159.799C66.9622 151.863 68.4881 141.499 68.4881 141.499C68.4881 141.499 58.367 144 51.1843 151.933Z" fill="#6C63FF"/>
<path d="M68.4944 141.503C68.4944 141.503 59.1378 149.635 56.7593 155.237C54.3808 160.839 42.482 170.232 42.482 170.232" stroke="#535461" stroke-width="2" stroke-miterlimit="10"/>
<path d="M314.854 149.141C314.854 149.141 309.659 123.172 311.648 119.941C311.648 119.941 311.72 116.937 311.6 113.108C311.6 112.963 311.6 112.818 311.6 112.669C311.95 112.903 312.315 113.115 312.692 113.301C314.524 114.247 316.627 114.52 318.638 114.073L317.065 112.312C316.688 111.891 316.294 111.436 316.213 110.879C316.131 110.323 316.357 109.827 316.552 109.33C318.047 105.536 318.126 100.765 315.247 97.8694C312.815 95.435 312.223 92.2924 309.584 90.0698C307.655 88.4416 306.595 86.0545 305.594 83.7466C304.748 81.7959 303.895 79.8293 303.411 77.7616C303.033 76.1461 302.882 74.4736 302.363 72.8959C301.844 71.3183 300.872 69.7849 299.352 69.0799C298.811 68.8301 298.21 68.6878 297.716 68.3559C297.068 67.9164 296.678 67.2019 296.209 66.5759C293.828 63.4143 285.852 65.2765 282.077 66.5601C281.051 66.8833 280.1 67.4125 279.283 68.1156L279.318 68.0587C279.346 68.0113 279.381 67.9638 279.412 67.9164C278.999 68.2522 278.642 68.6525 278.355 69.102C277.804 69.9778 277.575 70.999 277.115 71.9475C276.562 73.0698 273.482 76.203 274.806 77.4645C274.899 77.5492 275.005 77.6176 275.121 77.6668C275.618 77.8748 276.166 77.9298 276.694 77.8249L276.637 77.9608C276.185 79.0738 275.953 80.2648 275.955 81.467C275.955 86.6616 280.218 90.8728 285.481 90.8728C286.471 90.8738 287.454 90.7213 288.398 90.4207C288.42 90.5409 288.438 90.661 288.46 90.7811C288.46 90.8286 288.476 90.876 288.483 90.9234L288.316 91.1574C288.307 91.1429 288.298 91.1292 288.287 91.1163L283.348 98.0528C282.593 98.5871 278.245 101.749 278 104.12C277.742 106.716 277.484 109.754 277.484 109.754L277.449 110.405C277.233 110.586 276.981 110.719 276.709 110.792C276.437 110.866 276.153 110.879 275.876 110.832C274.334 110.579 274.334 116.523 274.334 116.523C274.334 116.523 273.309 117.471 272.604 116.649C271.899 115.827 270.037 118.613 270.037 118.613L258.364 119.119L258.097 119.134L257.468 117.177C257.4 116.971 257.254 116.8 257.061 116.701C256.869 116.602 256.645 116.583 256.439 116.649C256.39 116.665 256.343 116.686 256.297 116.709L256.253 116.735L256.172 116.792L256.131 116.83C256.108 116.85 256.087 116.872 256.068 116.896L256.03 116.94L256.011 116.959C255.938 117.06 255.89 117.177 255.871 117.3C255.851 117.423 255.86 117.549 255.898 117.667L256.439 119.346C254.186 119.801 251.883 121.085 253.762 124.62L244.241 122.852L247.321 125.451L263.222 128.749C263.011 129.128 263.15 129.678 263.807 130.453C266.639 133.795 271.798 134.702 273.875 134.936C274.423 136.169 275.108 137.335 275.917 138.414L275.737 141.743C275.737 141.743 270.48 167.118 269.518 168.405C270.004 167.851 270.448 167.263 270.848 166.644C269.322 171.857 267.189 178.993 266.629 180.062C265.73 181.769 264.896 188.677 265.921 189.12C266.236 189.256 267.136 189.189 268.42 189.091V189.663L268.363 211.349C268.363 211.349 268.621 224.65 267.913 225.918C267.205 227.185 267.016 229.844 267.016 229.844C267.016 229.844 264.185 235.089 261.942 237.198C261.926 237.215 261.909 237.229 261.891 237.242L261.822 236.749C261.822 236.749 259.126 240.17 253.161 239.977C253.161 239.977 249.571 242.323 254.894 242.45C260.218 242.576 267.016 242.26 267.016 242.26C267.016 242.26 271.764 234.988 275.741 235.937V241.447H276.958V235.848C277.523 235.475 278.006 234.99 278.379 234.423C278.751 233.856 279.005 233.219 279.126 232.551C279.23 231.862 279.154 231.157 278.904 230.507C278.655 229.856 278.241 229.283 277.704 228.842C277.462 228.623 277.269 228.356 277.135 228.057C277.001 227.759 276.93 227.437 276.927 227.11L276.883 227.147C276.883 227.037 276.854 226.923 276.842 226.806C276.493 223.961 276.055 218.089 277.6 213.745C279.717 207.789 280.359 199.493 278.818 194.554C278.32 192.976 277.912 191.37 277.594 189.746C277.556 189.54 277.521 189.344 277.49 189.161C278.544 189.304 279.587 189.515 280.614 189.793C284.185 190.783 291.997 190.966 298.667 190.912C298.682 191.096 298.701 191.289 298.723 191.481C298.842 192.822 299.091 194.148 299.466 195.44C300.303 197.969 300.686 209.12 300.686 209.12C300.686 209.12 301.766 218.289 301.177 222.019C300.863 224.093 300.548 226.177 300.369 228.27V228.311C300.369 228.311 298.601 233.369 297.307 236.117C297.276 236.186 297.241 236.256 297.21 236.322C296.865 236.354 296.526 236.429 296.2 236.547C296.2 236.547 294.466 240.025 292.739 240.6C291.012 241.175 291.585 243.069 295.495 242.374C299.406 241.678 305.311 241.109 305.311 241.109L305.566 237.562L306.768 236.051L306.453 239.588L307.734 239.335L307.564 235.032L309.53 232.56C309.53 232.56 311.906 230.435 308.376 226.256V226.348C308.338 226.287 308.303 226.224 308.262 226.164V226.145C307.677 225.235 307.212 223.537 308.064 220.524C309.606 215.08 310.502 210.138 310.502 210.138C310.502 210.138 313.944 196.9 309.807 190.637H309.99C309.566 189.756 309.266 188.819 309.099 187.855C309.078 187.741 309.059 187.624 309.043 187.504C312.104 187.327 315.108 186.771 317.559 185.569C317.55 185.557 316.074 154.143 314.854 149.141ZM275.989 127.231V127.294L275.36 127.326L275.989 127.231ZM273.831 127.532C273.727 127.555 273.631 127.601 273.548 127.668C273.277 128.052 273.107 128.499 273.054 128.967L272.072 128.746C272.072 128.746 271.383 128.597 270.392 128.43L269.923 127.955C271.213 127.848 272.554 127.69 273.831 127.532Z" fill="url(#paint1_linear_0_883)"/>
<path d="M306.304 235.077L305.929 239.557L307.184 239.304L306.996 234.445L306.304 235.077Z" fill="#1D2366"/>
<path d="M277.663 213.805C276.15 218.137 276.578 223.983 276.917 226.822C277.043 227.871 277.16 228.51 277.16 228.51C277.16 228.51 274.898 233.689 274.709 233.885C274.52 234.081 268.051 238.049 268.051 238.049L263.53 240.701C263.53 240.701 258.943 238.681 261.143 237.985C261.592 237.804 261.997 237.527 262.329 237.173C264.531 235.07 267.296 229.844 267.296 229.844C267.296 229.844 267.485 227.192 268.177 225.93C268.87 224.669 268.618 211.412 268.618 211.412L268.671 189.803V186.986L277.276 187.049C277.33 188.005 277.454 188.956 277.647 189.894C277.956 191.513 278.356 193.114 278.846 194.687C280.362 199.616 279.733 207.871 277.663 213.805Z" fill="#FFB0B1"/>
<path opacity="0.1" d="M277.16 228.51C277.16 228.51 274.898 233.689 274.709 233.885C274.52 234.081 268.051 238.049 268.051 238.049L263.53 240.701C263.53 240.701 258.943 238.681 261.143 237.985C261.592 237.804 261.997 237.527 262.329 237.173L262.524 238.554L264.031 238.491L276.93 226.828C277.043 227.871 277.16 228.51 277.16 228.51Z" fill="black"/>
<path d="M277.002 227.122L264.031 238.864L262.524 238.927L262.209 236.714C262.209 236.714 259.573 240.123 253.714 239.933C253.714 239.933 250.197 242.269 255.41 242.396C260.623 242.522 267.281 242.206 267.281 242.206C267.281 242.206 271.931 234.934 275.822 235.883V241.375H277.018V235.832C277.574 235.456 278.048 234.971 278.413 234.406C278.777 233.841 279.024 233.208 279.138 232.544C279.242 231.861 279.169 231.162 278.926 230.515C278.683 229.869 278.278 229.296 277.751 228.851C277.516 228.63 277.328 228.362 277.199 228.064C277.07 227.767 277.003 227.446 277.002 227.122Z" fill="#1D2366"/>
<path d="M307.499 220.559C306.662 223.562 307.119 225.254 307.691 226.161V226.18C308.426 227.3 308.936 228.554 309.195 229.87L309.245 230.154L303.343 238.801L300.14 240.066C300.14 240.066 294.99 238.299 295.931 237.793C296.167 237.669 296.535 237.012 296.957 236.104C298.215 233.37 299.952 228.324 299.952 228.324V228.283C300.134 226.199 300.424 224.122 300.745 222.054C301.32 218.333 300.263 209.199 300.263 209.199C300.263 209.199 299.886 198.092 299.068 195.566C298.698 194.282 298.453 192.965 298.335 191.633C298.165 190.052 298.127 188.75 298.127 188.75C298.127 188.75 301.518 184.007 307.735 189.129C308.232 189.538 308.67 190.015 309.035 190.546C313.329 196.686 309.871 210.211 309.871 210.211C309.871 210.211 309.006 215.13 307.499 220.559Z" fill="#FFB0B1"/>
<path opacity="0.1" d="M309.253 230.154L303.351 238.801L300.148 240.066C300.148 240.066 294.998 238.298 295.939 237.792C296.175 237.669 296.543 237.011 296.964 236.104C299.145 236.085 300.274 238.172 300.274 238.172L303.036 237.729C303.036 237.729 306.68 230.533 307.498 230.094C308.316 229.654 307.624 226.809 307.624 226.809V226.085C307.646 226.11 307.664 226.139 307.69 226.164V226.183C308.424 227.303 308.935 228.556 309.193 229.873L309.253 230.154Z" fill="black"/>
<path d="M300.466 238.358C300.466 238.358 298.893 235.456 295.879 236.528C295.879 236.528 294.184 240.006 292.488 240.568C290.792 241.131 291.358 243.028 295.19 242.336C299.022 241.643 304.799 241.071 304.799 241.071L305.05 237.533L308.945 232.547C308.945 232.547 311.267 230.432 307.813 226.268V226.992C307.813 226.992 308.505 229.838 307.687 230.277C306.869 230.717 303.238 237.916 303.238 237.916L300.466 238.358Z" fill="#1D2366"/>
<path opacity="0.1" d="M277.285 187.042C277.339 187.999 277.463 188.95 277.656 189.888C274.114 189.366 270.826 189.625 268.671 189.796V186.979L277.285 187.042Z" fill="black"/>
<path opacity="0.1" d="M309.385 191.333C309.385 191.333 304.351 191.579 298.349 191.63C298.179 190.049 298.141 188.746 298.141 188.746C298.141 188.746 301.532 184.004 307.749 189.126C308.246 189.534 308.684 190.011 309.049 190.542C309.146 190.812 309.258 191.076 309.385 191.333Z" fill="black"/>
<path d="M309.382 190.763C309.382 190.763 287.334 191.835 280.613 189.941C273.893 188.048 267.233 189.689 266.229 189.249C265.226 188.81 266.04 181.927 266.921 180.223C267.802 178.519 272.635 161.285 272.635 161.285L277.285 136.921L282.183 135.565L282.529 135.467L291.065 133.102L297.319 131.366C297.319 131.366 309.756 180.159 308.69 183.757C308.302 185.135 308.24 186.585 308.507 187.991C308.67 188.951 308.964 189.884 309.382 190.763Z" fill="#1D2366"/>
<path d="M261.079 120.26C261.079 120.26 256.674 125.002 260.009 127.645C263.344 130.288 265.537 127.898 265.537 127.898L261.079 120.26Z" fill="white"/>
<path opacity="0.1" d="M261.079 120.26C261.079 120.26 256.674 125.002 260.009 127.645C263.344 130.288 265.537 127.898 265.537 127.898L261.079 120.26Z" fill="black"/>
<path d="M296.668 89.0803C296.668 89.0803 296.152 89.5735 295.375 90.3007C294.267 91.3409 292.628 92.8616 291.175 94.1357C289.161 95.8967 287.5 97.1898 288.095 96.0865C288.689 94.9831 288.576 93.0608 288.28 91.2618C288.258 91.1417 288.239 91.0216 288.217 90.9046C287.972 89.5834 287.648 88.2784 287.245 86.9968C287.245 86.9968 290.498 82.7729 292.298 81.1068C292.968 80.4745 293.437 80.2152 293.465 80.6547C293.497 81.2459 293.937 82.5516 294.484 83.9364C294.5 83.9807 294.516 84.0218 294.535 84.066C294.9 85.0145 295.312 85.9883 295.674 86.8293C296.227 88.1192 296.668 89.0803 296.668 89.0803Z" fill="#FFB0B1"/>
<path opacity="0.1" d="M294.535 84.0657C294.229 85.7181 293.487 87.2577 292.387 88.5235C291.287 89.7893 289.868 90.7349 288.28 91.2616C288.03 89.8183 287.684 88.3935 287.245 86.9965C287.245 86.9965 293.371 79.0451 293.465 80.6544C293.487 81.2646 293.965 82.6177 294.535 84.0657Z" fill="black"/>
<path opacity="0.1" d="M287.667 93.386L288.46 92.2636C288.46 92.2636 288.985 95.4821 290.917 94.0626C292.848 92.643 292.943 104.746 292.943 104.746L290.87 135.897L275.888 134.996L276.312 119.943L278.008 112.356L282.202 101.325L284.697 97.6794L287.667 93.386Z" fill="black"/>
<path d="M292.941 104.939L291.054 133.105L290.855 136.09L282.502 135.587L282.188 135.568L275.895 135.189L276.32 120.133L278.016 112.545L282.21 101.515L284.705 97.8692L287.675 93.5599L288.467 92.4407C288.467 92.4407 288.993 95.6592 290.925 94.2397L290.965 94.2112C292.853 93.0098 292.941 104.939 292.941 104.939Z" fill="#1D2366"/>
<path d="M278.231 109.909C278.231 109.909 277.479 111.489 275.969 111.233C274.459 110.977 274.462 116.924 274.462 116.924C274.462 116.924 273.458 117.873 272.766 117.051C272.074 116.229 270.249 119.008 270.249 119.008L258.816 119.514C258.816 119.514 263.903 121.85 262.906 128.919C262.906 128.919 280.178 127.844 280.745 126.203C281.311 124.563 278.231 109.909 278.231 109.909Z" fill="white"/>
<path opacity="0.03" d="M278.231 109.909C278.231 109.909 277.479 111.489 275.969 111.233C274.459 110.977 274.462 116.924 274.462 116.924C274.462 116.924 273.458 117.873 272.766 117.051C272.074 116.229 270.249 119.008 270.249 119.008L258.816 119.514C258.816 119.514 263.903 121.85 262.906 128.919C262.906 128.919 280.178 127.844 280.745 126.203C281.311 124.563 278.231 109.909 278.231 109.909Z" fill="black"/>
<path d="M245.001 123.229L248.015 125.815L272.825 131.054L269.748 127.899L245.001 123.229Z" fill="white"/>
<path d="M287.712 94.3822C287.3 95.0145 286.12 98.252 285.136 101.078C284.314 103.434 283.629 105.505 283.629 105.505C283.629 105.505 282.027 115.982 281.209 117.876C280.391 119.77 280.835 127.155 280.835 127.155L277.786 145.395C277.786 145.395 276.405 154.8 274.272 160.419C272.167 165.948 269.823 168.541 269.751 168.623C270.695 167.339 275.839 142.065 275.839 142.065L277.538 110.19C277.538 110.19 277.786 107.161 278.038 104.572C278.29 101.983 283.386 98.448 283.386 98.448L288.301 91.4261C288.795 92.09 288.464 93.2472 287.712 94.3822Z" fill="white"/>
<path d="M274.897 135.347C274.897 135.347 267.661 135.031 264.156 130.8C260.651 126.57 272.258 129.112 272.258 129.112L275.275 129.808L274.897 135.347Z" fill="#FFB0B1"/>
<path opacity="0.1" d="M308.695 183.761C308.308 185.138 308.245 186.588 308.512 187.994C300.619 188.557 292.174 186.413 292.174 186.413C290.601 187.868 286.458 190.011 286.458 190.011L284.199 161.873C282.755 158.079 282.189 138.202 282.189 138.202C282.189 138.202 282.318 137.162 282.503 135.603C282.503 135.565 282.503 135.524 282.519 135.486C283.082 131.133 284.199 122.96 284.746 121.857C285.501 120.339 282.425 116.302 282.425 116.302L283.825 104.303L283.995 102.855C286.946 101.531 289.208 97.3004 289.208 97.3004L290.944 94.2431C292.832 93.0259 292.93 104.955 292.93 104.955L291.042 133.121L297.296 131.386C297.296 131.386 309.761 180.163 308.695 183.761Z" fill="black"/>
<path d="M316.794 185.705C308.19 189.999 292.55 186.021 292.55 186.021C290.977 187.476 286.834 189.619 286.834 189.619L284.572 161.481C283.131 157.687 282.564 137.81 282.564 137.81C282.564 137.81 284.383 122.979 285.138 121.465C285.358 121.022 285.251 120.364 284.99 119.656C283.706 116.285 283.234 112.657 283.612 109.068L284.216 103.911L284.383 102.467C287.337 101.139 289.599 96.9084 289.599 96.9084L291.172 94.1388L294.067 89.036L295.438 86.6206L295.671 86.8324L297.449 88.4511C297.449 88.4511 298.204 89.0834 299.336 90.0319C301.8 92.1186 306.057 95.7924 308.253 98.0403C310.184 100.019 310.795 107.718 310.971 113.513C311.087 117.329 311.018 120.32 311.018 120.32C309.071 123.542 314.164 149.407 314.164 149.407C315.35 154.405 316.794 185.705 316.794 185.705Z" fill="white"/>
<path opacity="0.03" d="M300.275 96.8449C300.275 96.8449 294.369 108.141 295.055 112.435C295.741 116.728 297.692 121.588 296.751 122.723C296.428 123.153 296.01 123.502 295.53 123.742C295.051 123.983 294.522 124.109 293.986 124.111C293.042 124.174 290.525 125.941 290.525 126.131C290.525 126.321 288.2 126.321 286.12 127.206C284.041 128.091 280.97 128.594 280.97 128.594C280.97 128.594 274.992 128.404 274.435 128.973C273.879 129.542 273.306 132.947 274.498 135.663C275.691 138.379 277.015 140.405 278.016 140.775C279.016 141.145 285.365 139.008 290.515 138.502C295.666 137.996 301.256 133.896 301.256 133.896C301.256 133.896 307.413 131.683 308.493 127.961C309.572 124.24 307.174 103.788 307.174 103.788C307.174 103.788 305.362 94.2555 300.275 96.8449Z" fill="black"/>
<path opacity="0.03" d="M299.522 95.8964C299.522 95.8964 293.617 107.196 294.309 111.486C295.001 115.777 296.945 120.639 296.002 121.777C295.679 122.208 295.262 122.557 294.783 122.798C294.304 123.039 293.775 123.165 293.239 123.165C292.295 123.228 289.778 124.996 289.778 125.185C289.778 125.375 287.453 125.375 285.374 126.257C283.294 127.139 280.224 127.645 280.224 127.645C280.224 127.645 274.246 127.456 273.692 128.025C273.138 128.594 272.56 132.002 273.755 134.715C274.951 137.427 276.272 139.457 277.272 139.827C278.273 140.197 284.622 138.06 289.772 137.557C294.922 137.054 300.513 132.947 300.513 132.947C300.513 132.947 306.667 130.734 307.734 127.016C308.8 123.298 306.415 102.839 306.415 102.839C306.415 102.839 304.609 93.3102 299.522 95.8964Z" fill="black"/>
<path d="M300.088 96.2759C300.088 96.2759 294.183 107.576 294.875 111.866C295.567 116.156 297.512 121.019 296.571 122.154C296.249 122.585 295.832 122.935 295.352 123.177C294.872 123.418 294.342 123.544 293.806 123.545C292.862 123.608 290.345 125.375 290.345 125.562C290.345 125.748 288.023 125.752 285.94 126.637C283.857 127.522 280.79 128.025 280.79 128.025C280.79 128.025 274.812 127.835 274.255 128.404C273.699 128.973 273.126 132.381 274.318 135.094C275.511 137.807 276.835 139.837 277.836 140.206C278.836 140.576 285.185 138.439 290.335 137.933C295.486 137.427 301.076 133.327 301.076 133.327C301.076 133.327 307.233 131.114 308.312 127.392C309.392 123.671 307.01 103.219 307.01 103.219C307.01 103.219 305.173 93.7024 300.088 96.2759Z" fill="white"/>
<path opacity="0.1" d="M299.96 126.583C299.96 126.583 295.241 125.635 296.883 127.216C298.526 128.796 298.516 130.181 300.527 130.118C302.537 130.055 299.96 126.583 299.96 126.583Z" fill="black"/>
<path opacity="0.1" d="M307.934 160.595C307.934 160.595 305.801 162.047 309.882 165.392C313.963 168.737 307.934 160.595 307.934 160.595Z" fill="black"/>
<path opacity="0.1" d="M303.868 172.524C303.868 172.714 303.113 179.48 305.938 181.171C308.764 182.863 303.868 172.524 303.868 172.524Z" fill="black"/>
<path d="M259.012 119.498C256.734 119.577 251.814 120.276 254.365 125.059C256.621 129.293 260.412 126.463 262.545 124.316C262.025 122.315 260.76 120.59 259.012 119.498Z" fill="#FFB0B1"/>
<path opacity="0.1" d="M299.336 90.2246C296.92 91.8845 294.894 93.2851 294.498 93.5759C293.415 94.3821 291.351 99.1151 290.021 101.531C288.96 103.475 285.515 103.974 284.216 104.098L284.383 102.653C287.337 101.325 289.599 97.0948 289.599 97.0948L295.438 86.8069L297.449 88.6438C297.449 88.6438 298.204 89.2762 299.336 90.2246Z" fill="black"/>
<path d="M299.336 90.0348C296.92 91.6947 294.894 93.0953 294.498 93.3893C293.415 94.1923 291.351 98.9253 290.021 101.341C288.96 103.285 285.515 103.785 284.216 103.908L284.383 102.463C287.337 101.135 289.599 96.905 289.599 96.905L295.438 86.6171L297.449 88.4477C297.449 88.4477 298.204 89.0737 299.336 90.0348Z" fill="#DCE7FF"/>
<path d="M294.684 81.9793C294.685 83.8772 294.112 85.7307 293.041 87.294C291.777 89.1424 289.894 90.4739 287.736 91.047C285.578 91.6202 283.287 91.3969 281.279 90.4177C279.27 89.4385 277.678 87.7683 276.79 85.7102C275.903 83.652 275.778 81.3423 276.44 79.2C277.102 77.0578 278.507 75.2249 280.398 74.0341C282.29 72.8433 284.544 72.3734 286.751 72.7096C288.958 73.0458 290.972 74.1659 292.427 75.8667C293.883 77.5674 294.683 79.7362 294.684 81.9793Z" fill="#FFB0B1"/>
<path opacity="0.1" d="M310.973 113.516C309.695 112.727 308.654 111.603 307.962 110.266C307.436 109.223 307.087 108.018 306.19 107.279C305.382 106.615 304.303 106.453 303.296 106.156C299.986 105.173 297.211 102.138 297.108 98.6726C297.057 97.0412 297.564 95.413 297.334 93.7974C297.203 92.8831 296.842 92.0177 296.283 91.284C296.006 90.933 295.702 90.6043 295.374 90.3007C294.934 89.8834 294.471 89.4787 294.068 89.0361C293.815 88.762 293.593 88.4597 293.408 88.135C293.258 87.8693 293.137 87.5885 293.046 87.2972C292.417 85.3623 292.989 83.067 292.297 81.1099L292.259 81.0024C291.998 80.3069 291.466 79.6113 290.727 79.5576C289.988 79.5038 289.355 80.1203 288.651 80.3954C287.175 80.9708 285.583 79.9907 284.353 78.9916C283.123 77.9926 281.735 76.8512 280.172 77.0725C279.137 77.2211 278.319 77.9293 277.365 78.2961C277.15 78.3798 276.928 78.4444 276.702 78.489C277.508 76.4671 278.991 74.7908 280.894 73.7479C282.797 72.7049 285.002 72.3606 287.13 72.774C289.258 73.1874 291.177 74.3326 292.556 76.0131C293.935 77.6935 294.689 79.8042 294.688 81.9825C294.689 82.6403 294.621 83.2963 294.484 83.9396C294.499 83.9838 294.515 84.0249 294.534 84.0692C294.899 85.0177 295.311 85.9914 295.673 86.8324L297.45 88.4512C297.45 88.4512 298.206 89.0835 299.338 90.032C301.802 92.1186 306.058 95.7924 308.254 98.0403C310.186 100.026 310.79 107.721 310.973 113.516Z" fill="black"/>
<path d="M277.257 72.5195C277.706 71.5995 277.93 70.5688 278.468 69.6962C279.258 68.4316 280.636 67.6222 282.051 67.1321C285.748 65.8517 293.56 63.9927 295.894 67.1321C296.354 67.7644 296.734 68.4663 297.37 68.9026C297.854 69.2346 298.44 69.3769 298.971 69.6266C300.459 70.3285 301.41 71.8587 301.916 73.4206C302.423 74.9824 302.574 76.658 302.945 78.2673C303.42 80.3318 304.254 82.2889 305.084 84.2332C306.063 86.5286 307.101 88.9093 308.989 90.5312C311.565 92.7443 312.135 95.8774 314.526 98.3055C317.357 101.189 317.266 105.947 315.806 109.725C315.614 110.222 315.397 110.74 315.473 111.268C315.548 111.796 315.939 112.277 316.307 112.697L317.854 114.452C314.192 115.34 310.049 113.418 308.344 110.045C307.818 109.001 307.469 107.8 306.569 107.057C305.764 106.393 304.682 106.235 303.678 105.938C300.368 104.951 297.593 101.913 297.489 98.4478C297.439 96.8196 297.946 95.1914 297.716 93.5789C297.588 92.6585 297.225 91.787 296.662 91.0497C295.797 89.9146 294.491 89.1527 293.786 87.8881C292.594 85.7729 293.5 83.0255 292.641 80.7555C292.377 80.0599 291.848 79.3644 291.109 79.3106C290.37 79.2569 289.737 79.8734 289.029 80.1485C287.557 80.7239 285.965 79.7469 284.735 78.7447C283.505 77.7425 282.117 76.6043 280.551 76.8288C279.516 76.9742 278.701 77.6824 277.747 78.0523C277.043 78.3242 275.614 78.5676 274.998 77.9701C273.695 76.7655 276.712 73.645 277.257 72.5195Z" fill="#591D4B"/>
<path opacity="0.1" d="M309.216 109.002C308.687 107.958 308.341 106.757 307.441 106.017C306.636 105.353 305.554 105.192 304.547 104.895C301.24 103.911 298.465 100.873 298.358 97.408C298.308 95.7798 298.815 94.1484 298.588 92.536C298.456 91.6214 298.093 90.756 297.534 90.0225C296.666 88.8875 295.36 88.1255 294.658 86.8609C293.466 84.7489 294.372 82.0015 293.51 79.7283C293.249 79.0359 292.717 78.3404 291.981 78.2835C291.245 78.2266 290.606 78.8494 289.901 79.1244C288.429 79.6999 286.834 78.7198 285.607 77.7207C284.38 76.7216 282.986 75.5803 281.423 75.8016C280.388 75.9502 279.57 76.6584 278.619 77.0251C277.915 77.297 276.483 77.5436 275.867 76.9461C274.57 75.6815 277.587 72.5673 278.129 71.4481C278.579 70.5249 278.802 69.4974 279.343 68.6248C279.371 68.5773 279.403 68.5299 279.434 68.4825C279.029 68.8195 278.68 69.2185 278.399 69.6649C277.861 70.5375 277.638 71.5619 277.188 72.4882C276.644 73.6074 273.626 76.7311 274.926 77.9863C275.555 78.587 276.971 78.3404 277.676 78.0685C278.619 77.6986 279.444 76.9904 280.479 76.8449C282.052 76.6205 283.436 77.7618 284.663 78.7609C285.89 79.7599 287.495 80.74 288.961 80.1646C289.666 79.8896 290.282 79.2699 291.037 79.3268C291.792 79.3837 292.296 80.0761 292.569 80.7716C293.428 83.0417 292.522 85.7891 293.715 87.9042C294.419 89.1467 295.725 89.9245 296.59 91.0658C297.153 91.8032 297.516 92.6746 297.644 93.5951C297.874 95.2075 297.367 96.8357 297.418 98.464C297.521 101.942 300.296 104.967 303.606 105.954C304.603 106.251 305.692 106.409 306.497 107.073C307.4 107.816 307.756 109.017 308.272 110.061C309.977 113.434 314.121 115.356 317.783 114.468L317.053 113.64C313.878 113.687 310.666 111.872 309.216 109.002Z" fill="black"/>
<path opacity="0.1" d="M287.526 94.5718C287.114 95.2042 285.934 98.4416 284.949 101.268C284.027 100.908 283.191 98.6092 283.191 98.6092L288.105 91.5841C288.608 92.2797 288.278 93.4337 287.526 94.5718Z" fill="black"/>
<path d="M287.714 94.3823C287.302 95.0146 286.122 98.2521 285.137 101.079C284.215 100.721 283.378 98.4196 283.378 98.4196L288.293 91.3977C288.796 92.0901 288.466 93.2473 287.714 94.3823Z" fill="#DCE7FF"/>
<path d="M259.145 126.681L256.42 118.047C256.388 117.946 256.376 117.839 256.384 117.734C256.393 117.628 256.423 117.525 256.471 117.43C256.52 117.336 256.586 117.252 256.667 117.184C256.748 117.116 256.841 117.064 256.942 117.032C257.145 116.968 257.365 116.988 257.553 117.086C257.742 117.185 257.884 117.354 257.949 117.557L260.674 126.182L260.403 127.987L259.145 126.681Z" fill="#BE8B87"/>
<path opacity="0.1" d="M256.674 117.288C256.877 117.223 257.097 117.242 257.286 117.341C257.476 117.439 257.619 117.609 257.684 117.813L260.408 126.437L260.204 127.791L260.402 127.999L260.672 126.194L257.932 117.569C257.867 117.366 257.725 117.197 257.536 117.098C257.348 117 257.128 116.981 256.925 117.044C256.755 117.1 256.607 117.211 256.507 117.36C256.56 117.332 256.616 117.307 256.674 117.288Z" fill="white"/>
<path d="M259.145 126.681L260.674 126.194L260.45 127.674L260.403 128L259.956 127.532L259.145 126.681Z" fill="#EFC8C4"/>
<path d="M259.951 127.531C259.978 127.498 260.011 127.47 260.048 127.449C260.071 127.435 260.096 127.428 260.122 127.428C260.149 127.428 260.174 127.435 260.196 127.449C260.218 127.475 260.236 127.504 260.25 127.535C260.271 127.57 260.299 127.599 260.333 127.622C260.366 127.644 260.405 127.659 260.445 127.664L260.398 127.98L259.951 127.531Z" fill="#727A9C"/>
<path d="M256.405 121.114C256.405 121.114 261.87 121.082 260.583 123.418C259.296 125.755 257.286 126.036 257.286 126.036L256.405 121.114Z" fill="#FFB0B1"/>
<path d="M222.416 16.259H222.18C212.792 16.259 204.49 21.2512 199.714 28.6177C194.938 21.2512 186.635 16.259 177.247 16.259H177.011C169.966 16.3265 163.231 19.1854 158.272 24.2145C153.312 29.2435 150.528 36.0364 150.524 43.1168C150.524 51.9092 154.356 64.3849 161.828 74.6506C176.064 94.2115 199.714 111.325 199.714 111.325C199.714 111.325 223.363 94.2146 237.597 74.6506C245.072 64.3849 248.901 51.9092 248.901 43.1168C248.897 36.0369 246.113 29.2445 241.154 24.2156C236.195 19.1866 229.461 16.3273 222.416 16.259ZM219.041 76.1556C217.971 76.1515 216.928 75.8226 216.049 75.2121C215.169 74.6016 214.493 73.738 214.111 72.7347H208.498C208.128 72.7324 207.769 72.6142 207.469 72.3965C207.17 72.1789 206.945 71.8727 206.827 71.5207L205.103 66.3008L199.648 85.457C199.542 85.8258 199.319 86.1499 199.014 86.3808C198.709 86.6117 198.337 86.7369 197.955 86.7375H197.845C197.446 86.7181 197.066 86.5619 196.769 86.2949C196.471 86.0278 196.273 85.6663 196.209 85.2705L190.587 51.2896L186.478 71.3974C186.384 71.7793 186.165 72.1186 185.856 72.361C185.548 72.6034 185.168 72.735 184.776 72.7347H176.87C176.633 72.7448 176.396 72.7066 176.174 72.6224C175.952 72.5382 175.749 72.4098 175.578 72.2448C175.407 72.0798 175.271 71.8818 175.178 71.6625C175.085 71.4433 175.037 71.2073 175.037 70.969C175.037 70.7306 175.085 70.4947 175.178 70.2754C175.271 70.0561 175.407 69.8581 175.578 69.6931C175.749 69.5282 175.952 69.3997 176.174 69.3155C176.396 69.2313 176.633 69.1931 176.87 69.2032H183.392L189.212 42.1683C189.308 41.7686 189.538 41.4147 189.865 41.167C190.191 40.9193 190.593 40.7933 191.002 40.8105C191.411 40.8277 191.801 40.987 192.105 41.2612C192.41 41.5354 192.611 41.9074 192.673 42.3138L198.414 76.9776L203.304 59.8385C203.405 59.4776 203.621 59.1594 203.917 58.9314C204.214 58.7035 204.576 58.5781 204.949 58.5739H204.984C205.353 58.574 205.714 58.6914 206.013 58.9095C206.312 59.1275 206.536 59.4349 206.651 59.7879L209.769 69.2127H214.041C214.345 68.2853 214.898 67.4602 215.639 66.8286C216.38 66.197 217.28 65.7834 218.24 65.6334C219.2 65.4834 220.183 65.6029 221.079 65.9787C221.976 66.3545 222.752 66.972 223.322 67.763C223.891 68.5539 224.232 69.4877 224.307 70.4612C224.382 71.4346 224.188 72.4099 223.746 73.2795C223.304 74.149 222.632 74.8789 221.803 75.3887C220.974 75.8984 220.022 76.1682 219.05 76.1682L219.041 76.1556Z" fill="white"/>
<defs>
<linearGradient id="paint0_linear_0_883" x1="112.443" y1="244.985" x2="112.443" y2="50.4392" gradientUnits="userSpaceOnUse">
<stop stop-color="#808080" stop-opacity="0.25"/>
<stop offset="0.54" stop-color="#808080" stop-opacity="0.12"/>
<stop offset="1" stop-color="#808080" stop-opacity="0.1"/>
</linearGradient>
<linearGradient id="paint1_linear_0_883" x1="281.429" y1="242.525" x2="281.429" y2="64.8433" gradientUnits="userSpaceOnUse">
<stop stop-color="#808080" stop-opacity="0.25"/>
<stop offset="0.54" stop-color="#808080" stop-opacity="0.12"/>
<stop offset="1" stop-color="#808080" stop-opacity="0.1"/>
</linearGradient>
</defs>
</svg>
