<svg width="159" height="319" viewBox="0 0 159 319" fill="none" xmlns="http://www.w3.org/2000/svg">
<path d="M159 75.7868H157.248V27.7839C157.248 24.1353 156.53 20.5224 155.133 17.1515C153.737 13.7806 151.691 10.7177 149.112 8.13771C146.532 5.55774 143.47 3.51119 140.099 2.11492C136.729 0.718649 133.116 0 129.468 0H27.7797C20.412 0 13.3462 2.92722 8.13648 8.13771C2.92678 13.3482 0 20.4151 0 27.7839V291.136C0 294.785 0.718534 298.398 2.11459 301.769C3.51065 305.14 5.55689 308.202 8.13648 310.782C10.7161 313.362 13.7785 315.409 17.1489 316.805C20.5192 318.201 24.1316 318.92 27.7797 318.92H129.468C136.836 318.92 143.902 315.993 149.111 310.782C154.321 305.572 157.248 298.505 157.248 291.136V109.956H159L159 75.7868Z" fill="#E6E6E6"/>
</svg>
