<svg width="32" height="32" viewBox="0 0 32 32" fill="none" xmlns="http://www.w3.org/2000/svg">
<path d="M27.27 13.5H26.167V12.084C26.167 11.8188 26.0616 11.5644 25.8741 11.3769C25.6866 11.1893 25.4322 11.084 25.167 11.084H5.25C4.98478 11.084 4.73043 11.1893 4.54289 11.3769C4.35536 11.5644 4.25 11.8188 4.25 12.084V19.916C4.25 20.1812 4.35536 20.4356 4.54289 20.6231C4.73043 20.8106 4.98478 20.916 5.25 20.916H25.167C25.4322 20.916 25.6866 20.8106 25.8741 20.6231C26.0616 20.4356 26.167 20.1812 26.167 19.916V18.5H27.271C27.537 18.5 27.751 18.052 27.751 17.5V14.5C27.751 13.948 27.536 13.5 27.27 13.5ZM18.525 16.842L11.792 20.208L15.158 16.842L13.475 15.158L20.208 11.792L16.842 15.158L18.525 16.842Z" fill="black"/>
</svg>
