<svg width="54" height="18" viewBox="0 0 54 18" fill="none" xmlns="http://www.w3.org/2000/svg">
<path d="M9 13.5C11.4853 13.5 13.5 11.4853 13.5 9C13.5 6.51472 11.4853 4.5 9 4.5C6.51472 4.5 4.5 6.51472 4.5 9C4.5 11.4853 6.51472 13.5 9 13.5Z" fill="black"/>
<path d="M27 13.5C29.4853 13.5 31.5 11.4853 31.5 9C31.5 6.51472 29.4853 4.5 27 4.5C24.5147 4.5 22.5 6.51472 22.5 9C22.5 11.4853 24.5147 13.5 27 13.5Z" fill="black"/>
<path d="M45 13.5C47.4853 13.5 49.5 11.4853 49.5 9C49.5 6.51472 47.4853 4.5 45 4.5C42.5147 4.5 40.5 6.51472 40.5 9C40.5 11.4853 42.5147 13.5 45 13.5Z" fill="black"/>
</svg>
