<svg width="19" height="20" viewBox="0 0 19 20" fill="none" xmlns="http://www.w3.org/2000/svg">
<path fill-rule="evenodd" clip-rule="evenodd" d="M14.6902 4.64206C14.6902 6.4828 14.2363 8.88357 13.538 8.51926C13.2525 9.45888 12.6531 10.27 11.8415 10.8148C11.0299 11.3596 10.0562 11.6046 9.08578 11.5081C8.11533 11.4116 7.20791 10.9797 6.51762 10.2855C5.82733 9.59142 5.39672 8.67794 5.29889 7.7002C4.60592 6.47854 3.69708 4.03043 6.03356 2.12215C6.07578 2.10833 6.10111 1.99345 6.13911 1.82432C6.28372 1.1845 6.60408 -0.237667 8.62494 0.0341088C10.1835 0.243126 14.6902 1.05367 14.6902 4.64206ZM12.6814 5.80256C12.6814 5.80256 12.4429 6.50567 12.6667 7.28909C12.6638 8.1244 12.3359 8.92527 11.7536 9.51973C11.1713 10.1142 10.3808 10.4549 9.55202 10.4686C8.7232 10.4823 7.9221 10.168 7.3207 9.59309C6.7193 9.01822 6.36557 8.22863 6.33544 7.39386C6.41197 7.10134 6.41197 6.60619 6.41145 6.05572C6.41092 5.06276 6.40986 3.89109 6.86111 3.41349C10.022 5.53504 12.6814 5.80256 12.6814 5.80256Z" fill="white"/>
<path d="M3.69444 16.4438C3.69444 15.8684 3.99686 15.3642 4.45075 15.0834C4.43346 15.0171 4.41728 14.9507 4.40219 14.8839C4.3221 14.5206 4.25958 14.1535 4.21483 13.784C4.16948 13.4301 4.14218 13.074 4.13303 12.7172C1.90528 13.5984 0 15.1344 0 16.747V19.6349H19V16.747C19 15.2025 17.2531 13.7287 15.1483 12.8326V12.8475C15.1578 13.1719 15.1398 13.5442 15.105 13.9021C15.0733 14.234 15.0264 14.5648 14.9699 14.8483H15.3056C15.4035 14.8483 15.4996 14.8759 15.5829 14.9278C15.6662 14.9798 15.7336 15.0541 15.7774 15.1424L16.3052 16.2061C16.3421 16.28 16.3611 16.3614 16.3611 16.4438V17.5075C16.3611 17.6486 16.3055 17.7839 16.2065 17.8836C16.1075 17.9833 15.9733 18.0394 15.8333 18.0394H14.7778V16.9757H15.3056V16.5693L14.9794 15.912H13.5206L13.1944 16.5693V16.9757H13.7222V18.0394H12.6667C12.5267 18.0394 12.3924 17.9833 12.2935 17.8836C12.1945 17.7839 12.1389 17.6486 12.1389 17.5075V16.4438C12.1389 16.3614 12.1579 16.28 12.1948 16.2061L12.7226 15.1424C12.7664 15.0541 12.8337 14.9798 12.9171 14.9278C13.0004 14.8759 13.0965 14.8483 13.1944 14.8483H13.8885C13.9001 14.8025 13.9117 14.752 13.9233 14.6962C13.9761 14.4457 14.0231 14.1281 14.0547 13.8C14.0864 13.4713 14.1012 13.1453 14.0932 12.8772C14.0913 12.7662 14.0826 12.6554 14.0674 12.5454C14.0558 12.4698 14.0442 12.4353 14.0421 12.4278C14.0415 12.4262 14.041 12.4257 14.0421 12.4268L14.0436 12.4262C13.7636 12.3386 13.4803 12.2617 13.1944 12.1959C12.929 12.1348 12.6545 12.5028 12.5347 12.7331H6.33333C6.31792 12.7035 6.30279 12.6737 6.28794 12.6438C6.17605 12.4193 6.0383 12.1422 5.80555 12.1959C5.60236 12.2422 5.39917 12.2954 5.19597 12.3539C5.18942 12.4472 5.18661 12.5407 5.18753 12.6342C5.18964 12.9283 5.21761 13.2884 5.26247 13.6521C5.30733 14.0149 5.36803 14.368 5.43136 14.6467C5.4493 14.727 5.46725 14.7993 5.48414 14.8616C5.78588 14.9015 6.06979 15.0283 6.30189 15.2267C6.53399 15.425 6.70444 15.6866 6.79284 15.9801C6.88124 16.2735 6.88384 16.5864 6.80033 16.8813C6.71682 17.1762 6.55074 17.4407 6.32197 17.6429C6.0932 17.8452 5.81144 17.9767 5.51041 18.0217C5.20938 18.0668 4.90184 18.0235 4.62461 17.897C4.34738 17.7705 4.1122 17.5661 3.94723 17.3084C3.78227 17.0507 3.6945 16.7505 3.69444 16.4438Z" fill="white"/>
<path d="M5.80556 16.4438C5.80556 16.7491 5.56172 16.9837 5.27778 16.9837C4.99383 16.9837 4.75 16.7496 4.75 16.4438C4.75 16.1385 4.99383 15.904 5.27778 15.904C5.56172 15.904 5.80556 16.138 5.80556 16.4438Z" fill="white"/>
</svg>
