<svg width="40" height="40" viewBox="0 0 40 40" fill="none" xmlns="http://www.w3.org/2000/svg">
<path d="M11.6668 39.9999C13.5076 39.9999 15 38.5075 15 36.6667C15 34.8258 13.5076 33.3335 11.6668 33.3335C9.8259 33.3335 8.33358 34.8258 8.33358 36.6667C8.33358 38.5075 9.8259 39.9999 11.6668 39.9999Z" fill="#6C63FF"/>
<path d="M34.9999 39.9999C36.8408 39.9999 38.3331 38.5075 38.3331 36.6667C38.3331 34.8258 36.8408 33.3335 34.9999 33.3335C33.159 33.3335 31.6667 34.8258 31.6667 36.6667C31.6667 38.5075 33.159 39.9999 34.9999 39.9999Z" fill="#6C63FF"/>
<path d="M39.9999 6.66678C39.9591 5.77678 39.2243 4.99998 38.3331 4.99998H10.568L8.73957 0.977197C8.46877 0.381999 7.87598 0 7.22238 0H1.66679C0.745998 0 0 0.746398 0 1.66679C0 2.58719 0.745998 3.33359 1.66679 3.33359H6.14918L13.6972 19.9387L12.9768 20.0183C10.386 20.2023 8.33397 22.3635 8.33397 25.0003C8.33397 27.7575 10.5768 30.0003 13.334 30.0003H36.6671C37.5875 30.0003 38.3335 29.2543 38.3335 28.3335C38.3335 27.4127 37.5875 26.6671 36.6671 26.6671H13.3332C12.414 26.6671 11.6664 25.9195 11.6664 25.0003C11.6664 24.1219 12.3516 23.4075 13.2144 23.3455L38.5155 20.5459C39.3891 20.4499 40.0379 19.6915 39.9983 18.8135L39.9999 6.66678ZM29.9999 15H26.1107V18.8891H22.7775V15H18.8887V11.6668H22.7775V7.77798H26.1107V11.6668H29.9999V15Z" fill="#7870FF"/>
</svg>
