<svg width="14" height="20" viewBox="0 0 14 20" fill="none" xmlns="http://www.w3.org/2000/svg">
<path fill-rule="evenodd" clip-rule="evenodd" d="M4.9 0C4.5287 0 4.1726 0.147646 3.91005 0.410456C3.6475 0.673267 3.5 1.02971 3.5 1.40139H1.4C1.0287 1.40139 0.672602 1.54903 0.410051 1.81184C0.1475 2.07465 0 2.4311 0 2.80277V18.218C0 18.5897 0.1475 18.9461 0.410051 19.2089C0.672602 19.4717 1.0287 19.6194 1.4 19.6194H12.6C12.9713 19.6194 13.3274 19.4717 13.59 19.2089C13.8525 18.9461 14 18.5897 14 18.218V2.80277C14 2.4311 13.8525 2.07465 13.59 1.81184C13.3274 1.54903 12.9713 1.40139 12.6 1.40139H10.5C10.5 1.02971 10.3525 0.673267 10.0899 0.410456C9.8274 0.147646 9.4713 0 9.1 0H4.9ZM4.9 1.40139H9.1V2.80277H4.9V1.40139ZM7.3899 12.6125L5.6448 17.2714C5.60966 17.3581 5.59224 17.451 5.59355 17.5445C5.59487 17.6381 5.61489 17.7305 5.65244 17.8162C5.69 17.9019 5.74432 17.9792 5.8122 18.0435C5.88009 18.1079 5.96016 18.1579 6.0477 18.1908C6.13523 18.2236 6.22846 18.2386 6.32187 18.2348C6.41528 18.231 6.50698 18.2085 6.59157 18.1687C6.67616 18.1288 6.75191 18.0724 6.81437 18.0028C6.87682 17.9332 6.92471 17.8517 6.9552 17.7633L7.8365 15.4124H9.6635L10.5448 17.7633C10.5753 17.8517 10.6232 17.9332 10.6856 18.0028C10.7481 18.0724 10.8238 18.1288 10.9084 18.1687C10.993 18.2085 11.0847 18.231 11.1781 18.2348C11.2715 18.2386 11.3648 18.2236 11.4523 18.1908C11.5398 18.1579 11.6199 18.1079 11.6878 18.0435C11.7557 17.9792 11.81 17.9019 11.8476 17.8162C11.8851 17.7305 11.9051 17.6381 11.9064 17.5445C11.9078 17.451 11.8903 17.3581 11.8552 17.2714L10.1108 12.6125H12.1114C12.2971 12.6125 12.4751 12.5386 12.6064 12.4072C12.7376 12.2758 12.8114 12.0976 12.8114 11.9118C12.8114 11.7259 12.7376 11.5477 12.6064 11.4163C12.4751 11.2849 12.2971 11.2111 12.1114 11.2111H4.9014C4.71575 11.2111 4.5377 11.2849 4.40643 11.4163C4.27515 11.5477 4.2014 11.7259 4.2014 11.9118C4.2014 12.0976 4.27515 12.2758 4.40643 12.4072C4.5377 12.5386 4.71575 12.6125 4.9014 12.6125H7.3906H7.3899ZM11.9 6.4744H2.1V5.07301H11.9V6.4744ZM2.1 9.38928H5.6V7.98789H2.1V9.38928ZM10.15 9.109C10.15 9.48067 10.0025 9.83712 9.73995 10.0999C9.4774 10.3627 9.1213 10.5104 8.75 10.5104C8.3787 10.5104 8.0226 10.3627 7.76005 10.0999C7.4975 9.83712 7.35 9.48067 7.35 9.109C7.35 8.73733 7.4975 8.38088 7.76005 8.11807C8.0226 7.85526 8.3787 7.70762 8.75 7.70762C9.1213 7.70762 9.4774 7.85526 9.73995 8.11807C10.0025 8.38088 10.15 8.73733 10.15 9.109Z" fill="white"/>
</svg>
