<svg width="35" height="24" viewBox="0 0 35 24" fill="none" xmlns="http://www.w3.org/2000/svg">
<path d="M6.14841 15.1424C6.37387 15.2273 6.59229 15.3297 6.80164 15.4489L26.1069 5.78474L26.4273 0.549111L34.3908 0L34.8176 11.9348L9.01855 20.4679C8.80789 21.3716 8.32715 22.1897 7.64027 22.8135C6.95339 23.4372 6.09291 23.8371 5.17329 23.9598C4.25367 24.0826 3.31846 23.9224 2.49208 23.5006C1.66569 23.0788 0.987289 22.4153 0.547075 21.5985C0.10686 20.7817 -0.0742994 19.8502 0.0276984 18.9279C0.129696 18.0057 0.51002 17.1363 1.11807 16.4354C1.72613 15.7346 2.5331 15.2355 3.43167 15.0045C4.33025 14.7736 5.27783 14.8217 6.14841 15.1424Z" fill="#FFB8B8"/>
</svg>
