<svg width="36" height="36" viewBox="0 0 36 36" fill="none" xmlns="http://www.w3.org/2000/svg">
<path d="M32.724 7.4745C32.63 7.18563 32.4471 6.93388 32.2014 6.75525C31.9557 6.57663 31.6598 6.48029 31.356 6.48H28.08V1.44C28.08 0.6435 27.4365 0 26.64 0H9.36C8.5635 0 7.92 0.6435 7.92 1.44V6.48H4.644C4.34006 6.47959 4.04383 6.57567 3.79799 6.75439C3.55215 6.93312 3.36937 7.18526 3.276 7.4745L0 17.55V34.56C0 35.3565 0.6435 36 1.44 36H34.56C35.3565 36 36 35.3565 36 34.56V17.55L32.724 7.4745ZM24.66 23.22C24.66 23.418 24.498 23.58 24.3 23.58H19.44V28.44C19.44 28.638 19.278 28.8 19.08 28.8H16.92C16.722 28.8 16.56 28.638 16.56 28.44V23.58H11.7C11.502 23.58 11.34 23.418 11.34 23.22V21.06C11.34 20.862 11.502 20.7 11.7 20.7H16.56V15.84C16.56 15.642 16.722 15.48 16.92 15.48H19.08C19.278 15.48 19.44 15.642 19.44 15.84V20.7H24.3C24.498 20.7 24.66 20.862 24.66 21.06V23.22ZM24.84 6.48H11.16V3.24H24.84V6.48Z" fill="#7870FF"/>
</svg>
