<svg width="21" height="21" viewBox="0 0 21 21" fill="none" xmlns="http://www.w3.org/2000/svg">
<path d="M19.1032 21L13.9548 15.8516C13.2774 16.3935 12.4984 16.8226 11.6177 17.1387C10.7371 17.4548 9.8 17.6129 8.80645 17.6129C6.34516 17.6129 4.26232 16.7603 2.55793 15.055C0.853548 13.3497 0.000903226 11.2668 0 8.80645C0 6.34516 0.852645 4.26232 2.55793 2.55793C4.26322 0.853548 6.34606 0.000903226 8.80645 0C11.2677 0 13.3506 0.852645 15.055 2.55793C16.7594 4.26322 17.612 6.34606 17.6129 8.80645C17.6129 9.8 17.4548 10.7371 17.1387 11.6177C16.8226 12.4984 16.3935 13.2774 15.8516 13.9548L21 19.1032L19.1032 21ZM8.80645 14.9032C10.5 14.9032 11.9397 14.3103 13.1257 13.1243C14.3116 11.9384 14.9041 10.4991 14.9032 8.80645C14.9032 7.1129 14.3103 5.67316 13.1243 4.48722C11.9384 3.30129 10.4991 2.70877 8.80645 2.70968C7.1129 2.70968 5.67316 3.30264 4.48722 4.48858C3.30129 5.67451 2.70877 7.1138 2.70968 8.80645C2.70968 10.5 3.30264 11.9397 4.48858 13.1257C5.67451 14.3116 7.1138 14.9041 8.80645 14.9032Z" fill="#7C7C7C"/>
</svg>
