<svg width="66" height="66" viewBox="0 0 66 66" fill="none" xmlns="http://www.w3.org/2000/svg">
<path d="M63.7792 66H2.21084C1.6247 65.9993 1.06276 65.7661 0.648298 65.3516C0.233834 64.9371 0.000686081 64.3751 0 63.7888V2.21118C0.000686081 1.62495 0.233834 1.06292 0.648298 0.648397C1.06276 0.233869 1.6247 0.000686185 2.21084 0H63.7792C64.3653 0.000686185 64.9272 0.233869 65.3417 0.648397C65.7562 1.06292 65.9893 1.62495 65.99 2.21118V63.7888C65.9893 64.3751 65.7562 64.9371 65.3417 65.3516C64.9272 65.7661 64.3653 65.9993 63.7792 66ZM2.21084 0.884991C1.85916 0.885335 1.52198 1.02521 1.2733 1.27393C1.02462 1.52264 0.884765 1.85988 0.884422 2.21161V63.7893C0.884765 64.141 1.02462 64.4782 1.2733 64.7269C1.52198 64.9756 1.85916 65.1155 2.21084 65.1159H63.7792C64.1308 65.1155 64.468 64.9756 64.7167 64.7269C64.9654 64.4782 65.1052 64.141 65.1056 63.7893V2.21161C65.1052 1.85988 64.9654 1.52264 64.7167 1.27393C64.468 1.02521 64.1308 0.885335 63.7792 0.884991H2.21084Z" fill="#CCCCCC"/>
</svg>
