<svg width="20" height="20" viewBox="0 0 20 20" fill="none" xmlns="http://www.w3.org/2000/svg">
<path fill-rule="evenodd" clip-rule="evenodd" d="M19.9835 4.44516C19.9835 5.6241 19.5156 6.75474 18.6828 7.58837C17.85 8.422 16.7205 8.89033 15.5427 8.89033C14.365 8.89033 13.2354 8.422 12.4026 7.58837C11.5698 6.75474 11.102 5.6241 11.102 4.44516C11.102 3.26623 11.5698 2.13559 12.4026 1.30196C13.2354 0.468328 14.365 0 15.5427 0C16.7205 0 17.85 0.468328 18.6828 1.30196C19.5156 2.13559 19.9835 3.26623 19.9835 4.44516ZM17.9197 4.99247C17.8866 5.13597 17.798 5.26045 17.6733 5.33859C17.5486 5.41673 17.398 5.44213 17.2546 5.40921L13.5821 4.56463C13.4386 4.53162 13.314 4.44288 13.2358 4.31794C13.1577 4.193 13.1323 4.04209 13.1653 3.89841C13.1982 3.75473 13.2869 3.63004 13.4117 3.55179C13.5365 3.47353 13.6873 3.44811 13.8308 3.48112L17.5033 4.32626C17.5744 4.34264 17.6415 4.37286 17.7009 4.41521C17.7602 4.45755 17.8107 4.51119 17.8493 4.57305C17.888 4.63492 17.9141 4.7038 17.9262 4.77576C17.9382 4.84773 17.936 4.92137 17.9197 4.99247Z" fill="white"/>
<path d="M5.9834 1.80347C5.62425 0.95222 4.42192 0.866651 3.93954 1.65733L0.162659 7.84333C-0.273091 8.55678 0.213728 9.46804 1.06358 9.52861L7.65036 9.99868C8.49966 10.0598 9.11803 9.22745 8.79386 8.45955L5.9834 1.80347Z" fill="white"/>
<path fill-rule="evenodd" clip-rule="evenodd" d="M16.31 16.87C17.1107 16.4964 17.7302 15.8197 18.0324 14.9887C18.3347 14.1578 18.2947 13.2408 17.9214 12.4393C17.7366 12.0425 17.4755 11.686 17.153 11.3901C16.8306 11.0943 16.453 10.8649 16.042 10.7152C15.2119 10.4127 14.2958 10.4526 13.4951 10.8263L7.45788 13.6445C7.06147 13.8295 6.70535 14.0909 6.40984 14.4136C6.11434 14.7364 5.88524 15.1143 5.73563 15.5257C5.58602 15.9371 5.51883 16.374 5.53789 16.8114C5.55694 17.2488 5.66188 17.6781 5.84671 18.0749C6.03154 18.4717 6.29264 18.8282 6.6151 19.124C6.93756 19.4198 7.31506 19.6491 7.72606 19.7989C8.13706 19.9487 8.5735 20.0159 9.01046 19.9968C9.44743 19.9778 9.87636 19.8727 10.2728 19.6877L16.31 16.87ZM13.2892 17.0534L15.8409 15.8626C16.3687 15.6099 16.7754 15.1588 16.9728 14.6075C17.1701 14.0562 17.1421 13.4492 16.8949 12.9184C16.6476 12.3877 16.201 11.976 15.6523 11.773C15.1035 11.57 14.4968 11.592 13.9642 11.8342L11.4124 13.025L13.2886 17.0534H13.2892Z" fill="white"/>
</svg>
