<svg width="60" height="12" viewBox="0 0 60 12" fill="none" xmlns="http://www.w3.org/2000/svg">
<path d="M2.67476 10.1021L3.74237 6.61228L0.918372 4.59186H4.40819L5.51023 0.91837L6.61228 4.59186H10.1021L7.2781 6.61228L8.34571 10.1021L5.51023 7.94392L2.67476 10.1021Z" fill="#FFC700"/>
<path d="M14.9184 10.1021L15.986 6.61228L13.162 4.59186H16.6518L17.7538 0.91837L18.8559 4.59186H22.3457L19.5217 6.61228L20.5893 10.1021L17.7538 7.94392L14.9184 10.1021Z" fill="#FFC700"/>
<path d="M27.1671 10.1021L28.2347 6.61228L25.4107 4.59186H28.9005L30.0025 0.91837L31.1046 4.59186H34.5944L31.7704 6.61228L32.838 10.1021L30.0025 7.94392L27.1671 10.1021Z" fill="#FFC700"/>
<path d="M39.4107 10.1021L40.4783 6.61228L37.6543 4.59186H41.1441L42.2462 0.91837L43.3482 4.59186H46.838L44.014 6.61228L45.0816 10.1021L42.2462 7.94392L39.4107 10.1021Z" fill="#FFC700"/>
<g clip-path="url(#clip0_0_1436)">
<path d="M51.6543 10.1021L52.7219 6.61228L49.8979 4.59186H53.3877L54.4898 0.91837L55.5918 4.59186H59.0816L56.2576 6.61228L57.3252 10.1021L54.4898 7.94392L51.6543 10.1021Z" fill="#E1E1E1"/>
</g>
<defs>
<clipPath id="clip0_0_1436">
<rect width="11.0204" height="11.0204" fill="white" transform="translate(48.9795)"/>
</clipPath>
</defs>
</svg>
