<svg width="117" height="22" viewBox="0 0 117 22" fill="none" xmlns="http://www.w3.org/2000/svg">
<path d="M17.9984 14.46L12.7284 13.85L10.2084 16.37C7.36963 14.9262 5.06222 12.6188 3.61844 9.78L6.14844 7.25L5.53844 2H0.0284377C-0.551562 12.18 7.81844 20.55 17.9984 19.97V14.46Z" fill="white"/>
<path d="M63.737 8.8125V4.29167C63.737 3.58125 63.137 3 62.4036 3H46.4036C45.6703 3 45.0703 3.58125 45.0703 4.29167V17.2083C45.0703 17.9187 45.6703 18.5 46.4036 18.5H62.4036C63.137 18.5 63.737 17.9187 63.737 17.2083V12.6875L69.0703 17.8542V3.64583L63.737 8.8125ZM61.0703 15.9167H47.737V5.58333H61.0703V15.9167ZM53.0703 14.625H55.737V12.0417H58.4036V9.45833H55.737V6.875H53.0703V9.45833H50.4036V12.0417H53.0703V14.625Z" fill="white"/>
<path d="M113.997 6C115.654 6 116.997 4.65685 116.997 3C116.997 1.34315 115.654 0 113.997 0C112.34 0 110.997 1.34315 110.997 3C110.997 4.65685 112.34 6 113.997 6Z" fill="white"/>
<path d="M114.711 16H99.8809L98.7109 17.17V4H108.811C108.676 3.34014 108.676 2.65986 108.811 2H98.7109C97.6109 2 96.7209 2.9 96.7209 4L96.7109 22L100.711 18H114.711C115.811 18 116.711 17.1 116.711 16V6.97C116.131 7.41 115.451 7.74 114.711 7.89V16Z" fill="white"/>
<path d="M100.997 12H108.997V14H100.997V12ZM100.997 9H112.997V11H100.997V9ZM100.997 8H112.997V7.9C111.809 7.64719 110.754 6.97207 110.027 6H100.997V8Z" fill="white"/>
</svg>
