<svg width="16" height="21" viewBox="0 0 16 21" fill="none" xmlns="http://www.w3.org/2000/svg">
<path d="M10.4976 10.5007C10.4973 8.65723 10.9825 6.84623 11.9044 5.24994C12.8263 3.65364 14.1523 2.32837 15.749 1.40752C14.1531 0.485643 12.3426 0.000205979 10.4996 6.55349e-08C8.65661 -0.000205848 6.84605 0.484834 5.2499 1.40635C3.65375 2.32787 2.32827 3.65339 1.40671 5.24967C0.485158 6.84596 0 8.65676 0 10.5C0 12.3433 0.485158 14.1541 1.40671 15.7504C2.32827 17.3467 3.65375 18.6722 5.2499 19.5937C6.84605 20.5152 8.65661 21.0003 10.4996 21.0001C12.3426 20.9999 14.1531 20.5144 15.749 19.5925C14.1524 18.6719 12.8264 17.3469 11.9045 15.7508C10.9826 14.1547 10.4974 12.3439 10.4976 10.5007Z" fill="#CCCCCC"/>
</svg>
