<svg width="14" height="20" viewBox="0 0 14 20" fill="none" xmlns="http://www.w3.org/2000/svg">
<path d="M11.5224 5.50622H4.23072C4.14905 5.50622 4.08488 5.43052 4.08488 5.33417V4.3019C4.08488 4.20556 4.14905 4.12986 4.23072 4.12986H11.5224C11.6041 4.12986 11.6682 4.20556 11.6682 4.3019V5.33417C11.6682 5.43052 11.6041 5.50622 11.5224 5.50622ZM4.08488 7.22667C4.08488 7.13541 4.11561 7.04789 4.17031 6.98336C4.22501 6.91883 4.29919 6.88258 4.37655 6.88258H9.04322C9.12057 6.88258 9.19476 6.91883 9.24946 6.98336C9.30416 7.04789 9.33489 7.13541 9.33489 7.22667C9.33489 7.31793 9.30416 7.40545 9.24946 7.46998C9.19476 7.53451 9.12057 7.57076 9.04322 7.57076H4.37655C4.29919 7.57076 4.22501 7.53451 4.17031 7.46998C4.11561 7.40545 4.08488 7.31793 4.08488 7.22667ZM4.08488 9.29121C4.08488 9.19995 4.11561 9.11243 4.17031 9.0479C4.22501 8.98337 4.29919 8.94712 4.37655 8.94712H9.04322C9.12057 8.94712 9.19476 8.98337 9.24946 9.0479C9.30416 9.11243 9.33489 9.19995 9.33489 9.29121C9.33489 9.38247 9.30416 9.46999 9.24946 9.53452C9.19476 9.59905 9.12057 9.6353 9.04322 9.6353H4.37655C4.29919 9.6353 4.22501 9.59905 4.17031 9.53452C4.11561 9.46999 4.08488 9.38247 4.08488 9.29121ZM4.37655 11.0117C4.29919 11.0117 4.22501 11.0479 4.17031 11.1124C4.11561 11.177 4.08488 11.2645 4.08488 11.3557C4.08488 11.447 4.11561 11.5345 4.17031 11.5991C4.22501 11.6636 4.29919 11.6998 4.37655 11.6998H9.04322C9.12057 11.6998 9.19476 11.6636 9.24946 11.5991C9.30416 11.5345 9.33489 11.447 9.33489 11.3557C9.33489 11.2645 9.30416 11.177 9.24946 11.1124C9.19476 11.0479 9.12057 11.0117 9.04322 11.0117H4.37655ZM4.08488 13.4203C4.08488 13.329 4.11561 13.2415 4.17031 13.177C4.22501 13.1125 4.29919 13.0762 4.37655 13.0762H9.04322C9.12057 13.0762 9.19476 13.1125 9.24946 13.177C9.30416 13.2415 9.33489 13.329 9.33489 13.4203C9.33489 13.5115 9.30416 13.5991 9.24946 13.6636C9.19476 13.7281 9.12057 13.7644 9.04322 13.7644H4.37655C4.29919 13.7644 4.22501 13.7281 4.17031 13.6636C4.11561 13.5991 4.08488 13.5115 4.08488 13.4203ZM10.2099 6.88258C10.1325 6.88258 10.0583 6.91883 10.0036 6.98336C9.94895 7.04789 9.91822 7.13541 9.91822 7.22667C9.91822 7.31793 9.94895 7.40545 10.0036 7.46998C10.0583 7.53451 10.1325 7.57076 10.2099 7.57076H11.3766C11.4539 7.57076 11.5281 7.53451 11.5828 7.46998C11.6375 7.40545 11.6682 7.31793 11.6682 7.22667C11.6682 7.13541 11.6375 7.04789 11.5828 6.98336C11.5281 6.91883 11.4539 6.88258 11.3766 6.88258H10.2099ZM9.91822 9.29121C9.91822 9.19995 9.94895 9.11243 10.0036 9.0479C10.0583 8.98337 10.1325 8.94712 10.2099 8.94712H11.3766C11.4539 8.94712 11.5281 8.98337 11.5828 9.0479C11.6375 9.11243 11.6682 9.19995 11.6682 9.29121C11.6682 9.38247 11.6375 9.46999 11.5828 9.53452C11.5281 9.59905 11.4539 9.6353 11.3766 9.6353H10.2099C10.1325 9.6353 10.0583 9.59905 10.0036 9.53452C9.94895 9.46999 9.91822 9.38247 9.91822 9.29121ZM10.2099 11.0117C10.1325 11.0117 10.0583 11.0479 10.0036 11.1124C9.94895 11.177 9.91822 11.2645 9.91822 11.3557C9.91822 11.447 9.94895 11.5345 10.0036 11.5991C10.0583 11.6636 10.1325 11.6998 10.2099 11.6998H11.3766C11.4539 11.6998 11.5281 11.6636 11.5828 11.5991C11.6375 11.5345 11.6682 11.447 11.6682 11.3557C11.6682 11.2645 11.6375 11.177 11.5828 11.1124C11.5281 11.0479 11.4539 11.0117 11.3766 11.0117H10.2099ZM9.91822 13.4203C9.91822 13.329 9.94895 13.2415 10.0036 13.177C10.0583 13.1125 10.1325 13.0762 10.2099 13.0762H11.3766C11.4539 13.0762 11.5281 13.1125 11.5828 13.177C11.6375 13.2415 11.6682 13.329 11.6682 13.4203C11.6682 13.5115 11.6375 13.5991 11.5828 13.6636C11.5281 13.7281 11.4539 13.7644 11.3766 13.7644H10.2099C10.1325 13.7644 10.0583 13.7281 10.0036 13.6636C9.94895 13.5991 9.91822 13.5115 9.91822 13.4203Z" fill="white"/>
<path d="M14 1.61398C14 0.261017 12.6717 -0.394818 11.8446 0.428933C11.5675 0.151991 11.2161 0 10.8529 0C10.4897 0 10.1384 0.151991 9.86125 0.428933C9.58415 0.151991 9.23275 0 8.86958 0C8.50641 0 8.15502 0.151991 7.87791 0.428933C7.60026 0.151562 7.24808 -0.000369812 6.88425 0.000260469C6.52043 0.00089075 6.16863 0.154042 5.89167 0.432374C5.6153 0.154651 5.2644 0.00154907 4.90136 0.000289018C4.53832 -0.000971031 4.18667 0.149692 3.90892 0.425492C3.01817 -0.476024 1.75 0.369061 1.75 1.61398V15.1367H0.548333C0.245 15.1367 0 15.4258 0 15.7836V18.2335C0 18.6898 0.153645 19.1274 0.427136 19.4501C0.700626 19.7727 1.07156 19.954 1.45833 19.954L6.125 19.9574L6.13783 19.954H11.4392C12.1183 19.954 12.7697 19.6357 13.2499 19.0691C13.7302 18.5025 14 17.7341 14 16.9329V1.61398ZM11.375 18.5776C10.9882 18.5776 10.6173 18.3964 10.3438 18.0737C10.0703 17.7511 9.91666 17.3135 9.91666 16.8572V15.7836C9.91666 15.4258 9.67166 15.1367 9.36833 15.1367H2.91667V1.61398C2.91667 1.46258 3.06833 1.38 3.16167 1.48322L3.75667 2.137C3.79743 2.18052 3.85044 2.20462 3.90542 2.20462C3.96039 2.20462 4.01341 2.18052 4.05417 2.137L4.64917 1.49011C4.7169 1.41708 4.80533 1.37659 4.89708 1.37659C4.98883 1.37659 5.07727 1.41708 5.145 1.49011L5.74 2.137C5.82167 2.22646 5.95583 2.22646 6.0375 2.137L6.63833 1.49011C6.70606 1.41708 6.7945 1.37659 6.88625 1.37659C6.978 1.37659 7.06643 1.41708 7.13416 1.49011L7.72916 2.137C7.81083 2.22646 7.945 2.22646 8.02666 2.137L8.62166 1.49011C8.68939 1.41708 8.77783 1.37659 8.86958 1.37659C8.96133 1.37659 9.04977 1.41708 9.1175 1.49011L9.7125 2.137C9.79416 2.22646 9.92833 2.22646 10.01 2.137L10.605 1.49011C10.6727 1.41708 10.7612 1.37659 10.8529 1.37659C10.9447 1.37659 11.0331 1.41708 11.1008 1.49011L11.6958 2.137C11.7355 2.17958 11.7869 2.20375 11.8406 2.20502C11.8942 2.20628 11.9464 2.18456 11.9875 2.14388L12.5883 1.49011C12.6817 1.38688 12.8333 1.46258 12.8333 1.61398V16.9329C12.8333 17.3691 12.6864 17.7874 12.425 18.0959C12.1635 18.4043 11.8089 18.5776 11.4392 18.5776H11.375Z" fill="white"/>
</svg>
