<svg width="35" height="22" viewBox="0 0 35 22" fill="none" xmlns="http://www.w3.org/2000/svg">
<path d="M6.29348 13.2155C6.50753 13.3134 6.7134 13.4283 6.90909 13.5591L26.4811 5.20436L27.1797 0.0478146L35 0L34.538 11.8265L8.70524 18.6592C8.65089 18.8388 8.5857 19.0149 8.50999 19.1866C8.1365 19.9837 7.53587 20.6526 6.78352 21.1094C6.03116 21.5661 5.16063 21.7904 4.28126 21.754C3.40189 21.7176 2.55289 21.4221 1.84087 20.9047C1.12885 20.3872 0.585559 19.671 0.279234 18.8457C-0.0270907 18.0205 -0.0827999 17.1232 0.119113 16.2664C0.321025 15.4096 0.77156 14.6316 1.41412 14.03C2.05668 13.4285 2.8626 13.0303 3.73071 12.8853C4.59883 12.7404 5.49042 12.8553 6.29348 13.2155Z" fill="#FFB8B8"/>
</svg>
