<svg width="42" height="74" viewBox="0 0 42 74" fill="none" xmlns="http://www.w3.org/2000/svg">
<path d="M13.7041 73.9999C13.2531 74.0011 12.8162 73.8429 12.4705 73.5533C12.1247 73.2638 11.8923 72.8613 11.8143 72.4171C9.09793 57.3362 0.21907 8.02508 0.00670607 6.65918C0.00201373 6.62776 -0.000223946 6.59603 1.76615e-05 6.56427V2.8876C-0.000332233 2.75368 0.0415001 2.62305 0.119573 2.51424L1.29255 0.871154C1.34828 0.792113 1.42139 0.726916 1.50624 0.680531C1.5911 0.634147 1.68545 0.607809 1.78206 0.603577C8.46922 0.290011 30.3696 -0.628928 31.4276 0.693074C32.4902 2.02176 32.1148 6.04751 32.0287 6.84105L32.0329 6.92386L41.872 69.8559C41.949 70.3578 41.8253 70.8698 41.5277 71.2812C41.2301 71.6926 40.7825 71.9703 40.2818 72.0542L34.1364 73.0668C33.6787 73.1403 33.2099 73.0471 32.8151 72.8041C32.4203 72.5611 32.1258 72.1845 31.9852 71.7427C30.0845 65.6683 23.7113 45.2342 21.5024 37.3273C21.4886 37.2772 21.4571 37.2339 21.4136 37.2054C21.3702 37.1769 21.3179 37.1651 21.2665 37.1724C21.215 37.1797 21.168 37.2055 21.1342 37.2449C21.1004 37.2843 21.0821 37.3347 21.0827 37.3867C21.1931 44.924 21.4598 64.1544 21.5517 70.7961L21.5618 71.5115C21.5659 71.9958 21.3881 72.464 21.0638 72.8236C20.7394 73.1832 20.2919 73.408 19.8098 73.4535L13.8839 73.992C13.8237 73.9975 13.7635 73.9999 13.7041 73.9999Z" fill="#2F2E41"/>
</svg>
