<svg width="144" height="304" viewBox="0 0 144 304" fill="none" xmlns="http://www.w3.org/2000/svg">
<path d="M122.735 0H109.483C110.093 1.49457 110.325 3.11612 110.16 4.7218C109.996 6.32748 109.439 7.86799 108.538 9.20762C107.638 10.5473 106.422 11.6449 104.998 12.4038C103.574 13.1627 101.984 13.5596 100.371 13.5596H42.2038C40.59 13.5595 39.001 13.1625 37.5768 12.4035C36.1525 11.6445 34.9368 10.5469 34.0366 9.20727C33.1364 7.86766 32.5795 6.3272 32.4148 4.72159C32.2501 3.11598 32.4827 1.4945 33.0922 0H20.7137C15.2201 0 9.9515 2.18267 6.06692 6.06783C2.18234 9.953 0 15.2224 0 20.7169V283.283C0 288.778 2.18234 294.047 6.06692 297.932C9.9515 301.817 15.2201 304 20.7137 304H122.735C128.229 304 133.498 301.817 137.382 297.932C141.267 294.047 143.449 288.778 143.449 283.283V20.7164C143.449 15.2221 141.267 9.95276 137.382 6.06768C133.497 2.1826 128.229 -1.1701e-09 122.735 0Z" fill="white"/>
</svg>
